<svg width="589" height="469" fill="none" xmlns="http://www.w3.org/2000/svg"><g clip-path="url(#clip0)"><path opacity=".1" d="M577.719 120.534a141.953 141.953 0 00-23.12-36.84L233.843 80.55l264.089-37.069a149.888 149.888 0 00-53.578-10.605 150.241 150.241 0 00-179.405-6.09 149.586 149.586 0 00-68.657-16.533c-71.264 0-130.65 49.332-143.97 114.756l525.397-4.476zm11.275 54.869a138.54 138.54 0 00-9.996-51.788L23.087 181.939a139.438 139.438 0 00-13.024 32.877l172.184 25.648L6.143 259.163c5.3 74.065 68.824 132.551 146.422 132.551 39.064 0 74.56-14.825 100.858-38.988 26.381 24.621 62.217 39.764 101.695 39.764 58.588 0 109.145-33.334 132.689-81.539 47.24-14.987 83.937-52.614 96.496-99.68L366.6 177.518h222.372c.011-.703.022-1.406.022-2.115z" fill="#6C63FF"/><path d="M379.12 441.443s17.597-31.152 44.119-40.134a54.26 54.26 0 0027.47-20.535 91.586 91.586 0 008.081-14.546" stroke="#535461" stroke-width="2" stroke-miterlimit="10"/><path d="M475.438 360.445c-3.022 2.925-17.084 5.956-17.084 5.956s3.452-13.955 6.473-16.885a7.611 7.611 0 015.42-2.149 7.628 7.628 0 015.353 2.311 7.615 7.615 0 011.526 8.322 7.612 7.612 0 01-1.688 2.445zm-7.936 25.258c-4.127.82-17.58-4.282-17.58-4.282s10.488-9.84 14.615-10.661a7.624 7.624 0 018.774 6.026 7.618 7.618 0 01-5.809 8.917zm-28.967 27.334c-3.976-1.379-13.018-12.565-13.018-12.565s14.029-3.204 18.005-1.831a7.624 7.624 0 014.231 3.892 7.618 7.618 0 01-9.218 10.504zm-26.577 15.746c-4.15-.687-14.95-10.187-14.95-10.187s13.28-5.526 17.429-4.839a7.613 7.613 0 013.199 13.702 7.622 7.622 0 01-5.678 1.324zm26.236-58.268c0 4.208 7.612 16.41 7.612 16.41s7.623-12.196 7.628-16.399a7.617 7.617 0 00-7.62-7.413 7.621 7.621 0 00-7.62 7.413v-.011zm-30.849 18.81c1.256 4.019 12.174 13.397 12.174 13.397s3.625-13.916 2.368-17.929a7.611 7.611 0 00-3.786-4.202 7.618 7.618 0 00-10.734 8.751l-.022-.017zm-27.471 22.4c.559 4.164 9.74 15.238 9.74 15.238s5.925-13.1 5.367-17.27a7.625 7.625 0 00-15.079 2.032h-.028z" fill="#6C63FF"/><path opacity=".25" d="M475.438 360.445c-3.022 2.925-17.084 5.956-17.084 5.956s3.452-13.955 6.473-16.885a7.611 7.611 0 015.42-2.149 7.628 7.628 0 015.353 2.311 7.615 7.615 0 011.526 8.322 7.612 7.612 0 01-1.688 2.445zm-7.936 25.258c-4.127.82-17.58-4.282-17.58-4.282s10.488-9.84 14.615-10.661a7.624 7.624 0 018.774 6.026 7.618 7.618 0 01-5.809 8.917zm-28.967 27.334c-3.976-1.379-13.018-12.565-13.018-12.565s14.029-3.204 18.005-1.831a7.624 7.624 0 014.231 3.892 7.618 7.618 0 01-9.218 10.504zm-26.577 15.746c-4.15-.687-14.95-10.187-14.95-10.187s13.28-5.526 17.429-4.839a7.613 7.613 0 013.199 13.702 7.622 7.622 0 01-5.678 1.324zm26.236-58.268c0 4.208 7.612 16.41 7.612 16.41s7.623-12.196 7.628-16.399a7.617 7.617 0 00-7.62-7.413 7.621 7.621 0 00-7.62 7.413v-.011zm-30.849 18.81c1.256 4.019 12.174 13.397 12.174 13.397s3.625-13.916 2.368-17.929a7.611 7.611 0 00-3.786-4.202 7.618 7.618 0 00-10.734 8.751l-.022-.017zm-27.471 22.4c.559 4.164 9.74 15.238 9.74 15.238s5.925-13.1 5.367-17.27a7.625 7.625 0 00-15.079 2.032h-.028z" fill="#000"/><path d="M380.131 440.823s3.457-35.606 24.014-54.551a54.196 54.196 0 0016.787-29.902 91.144 91.144 0 001.502-16.6" stroke="#535461" stroke-width="2" stroke-miterlimit="10"/><path d="M435.363 327.752c-1.575 3.908-13.202 12.37-13.202 12.37s-2.502-14.161-.933-18.063a7.62 7.62 0 0114.135 5.693zm2.971 26.319c-3.446 2.417-17.81 3.209-17.81 3.209s5.585-13.245 9.042-15.668a7.623 7.623 0 0110.616 1.848 7.614 7.614 0 01-1.848 10.611zm-15.392 36.717c-4.194.351-16.993-6.213-16.993-6.213s11.521-8.612 15.715-8.964a7.614 7.614 0 015.555 1.771 7.61 7.61 0 01.905 10.731 7.624 7.624 0 01-5.182 2.675zm-17.92 25.163c-4.077 1.055-17.798-3.255-17.798-3.255s9.895-10.432 13.961-11.493a7.63 7.63 0 015.689.89 7.616 7.616 0 01-1.863 13.858h.011zm.363-63.895c1.703 3.846 13.609 11.917 13.609 11.917s2.027-14.234.324-18.08a7.63 7.63 0 00-12.49-2.201 7.633 7.633 0 00-2.115 5.438c.021 1 .24 1.987.644 2.903l.028.023zm-20.58 29.689c2.793 3.165 16.559 7.301 16.559 7.301s-2.329-14.189-5.105-17.348a7.608 7.608 0 00-5.231-2.576 7.619 7.619 0 00-7.71 10.05 7.608 7.608 0 001.487 2.573zm-16.033 31.604c2.234 3.584 15.079 9.992 15.079 9.992s.106-14.379-2.1-17.962a7.616 7.616 0 00-10.54-2.603 7.608 7.608 0 00-2.439 10.573z" fill="#6C63FF"/><path opacity=".1" d="M18.63 437.251c10.29 0 18.63-1.145 18.63-2.557s-8.34-2.556-18.63-2.556c-10.289 0-18.63 1.144-18.63 2.556 0 1.412 8.341 2.557 18.63 2.557zm26.186 28.104c10.29 0 18.63-1.144 18.63-2.556 0-1.412-8.34-2.557-18.63-2.557-10.289 0-18.63 1.145-18.63 2.557s8.341 2.556 18.63 2.556z" fill="#6C63FF"/><path d="M55.07 456.982c1.116-1.027 2.133-2.232 2.451-3.7.318-1.469-.313-3.227-1.714-3.763-1.57-.602-3.25.492-4.524 1.591-1.273 1.1-2.736 2.356-4.4 2.121a6.7 6.7 0 002.071-6.268 2.64 2.64 0 00-.558-1.273c-.871-.932-2.452-.558-3.496.201-3.35 2.339-4.25 6.849-4.272 10.913-.335-1.463-.05-2.992-.062-4.466-.01-1.473-.419-3.17-1.675-3.974a5.087 5.087 0 00-2.575-.608c-1.496-.056-3.16.094-4.177 1.188-1.268 1.357-.938 3.634.162 5.125 1.1 1.49 2.792 2.433 4.323 3.466a9.62 9.62 0 013.093 2.941c.093.18.17.366.23.559h9.331a26.251 26.251 0 005.791-4.053zm-25.84-27.953c1.117-1.022 2.133-2.233 2.451-3.696.319-1.462-.312-3.226-1.714-3.762-1.57-.602-3.25.486-4.524 1.586-1.273 1.099-2.736 2.355-4.4 2.126a6.7 6.7 0 002.072-6.268 2.612 2.612 0 00-.559-1.273c-.871-.932-2.451-.558-3.496.201-3.35 2.339-4.255 6.849-4.272 10.913-.335-1.468-.05-2.992-.061-4.499-.012-1.507-.42-3.165-1.676-3.975a5.085 5.085 0 00-2.574-.602c-1.497-.056-3.161.094-4.178 1.183-1.267 1.362-.943 3.634.162 5.13 1.106 1.496 2.793 2.428 4.323 3.46a9.646 9.646 0 013.094 2.947c.091.168.168.344.229.525h9.365a25.873 25.873 0 005.758-3.996z" fill="#6C63FF"/><path opacity=".1" d="M493.174 466.946c14.472 0 26.203-1.609 26.203-3.595 0-1.985-11.731-3.594-26.203-3.594-14.471 0-26.203 1.609-26.203 3.594 0 1.986 11.732 3.595 26.203 3.595z" fill="#6C63FF"/><path d="M500.976 423.268s3.513 4.589-1.62 11.516c-5.132 6.927-9.365 12.782-7.656 17.097 0 0 7.746-12.866 14.045-13.045 6.3-.179 2.161-7.831-4.769-15.568z" fill="#6C63FF"/><path opacity=".1" d="M500.976 423.268c.305.444.545.929.715 1.44 6.143 7.218 9.426 13.955 3.518 14.128-5.506.156-12.113 9.997-13.693 12.481.05.189.112.376.184.558 0 0 7.751-12.86 14.045-13.039 6.294-.179 2.161-7.831-4.769-15.568z" fill="#000"/><path d="M507.504 429.118c0 1.613-.184 2.925-.407 2.925-.224 0-.403-1.312-.403-2.925 0-1.613.224-.854.447-.854.224 0 .363-.765.363.854z" fill="#FFD037"/><path d="M509.744 431.044c-1.419.776-2.659 1.239-2.765 1.044-.106-.196.955-.983 2.374-1.753 1.418-.77.86-.212.966 0 .106.212.86-.062-.575.709z" fill="#FFD037"/><path d="M482.43 423.268s-3.513 4.589 1.619 11.516 9.365 12.782 7.651 17.097c0 0-7.74-12.866-14.045-13.045-6.305-.179-2.156-7.831 4.775-15.568z" fill="#6C63FF"/><path opacity=".1" d="M482.429 423.268c-.308.443-.55.928-.72 1.44-6.143 7.218-9.421 13.955-3.513 14.128 5.507.156 12.113 9.997 13.694 12.481-.05.19-.114.377-.19.558 0 0-7.74-12.86-14.029-13.039-6.288-.179-2.172-7.831 4.758-15.568z" fill="#000"/><path d="M475.901 429.118c0 1.613.185 2.925.408 2.925.223 0 .402-1.312.402-2.925 0-1.613-.223-.854-.447-.854-.223 0-.363-.765-.363.854z" fill="#FFD037"/><path d="M473.662 431.044c1.418.776 2.658 1.239 2.764 1.044.106-.196-.955-.983-2.379-1.753-1.424-.77-.854-.212-.966 0-.112.212-.838-.062.581.709z" fill="#FFD037"/><path d="M477.018 451.283s9.818-.301 12.778-2.411c2.959-2.11 15.078-4.616 15.832-1.239.754 3.377 14.754 16.796 3.669 16.885-11.085.089-25.751-1.725-28.705-3.522-2.954-1.798-3.574-9.713-3.574-9.713z" fill="#A8A8A8"/><path opacity=".2" d="M509.504 463.351c-11.086.089-25.751-1.725-28.705-3.522-2.234-1.367-3.144-6.279-3.446-8.546h-.329s.625 7.915 3.574 9.713c2.948 1.797 17.625 3.611 28.704 3.522 3.2-.028 4.306-1.167 4.245-2.853-.447 1.022-1.67 1.686-4.043 1.686z" fill="#000"/><path opacity=".1" d="M270.467 469c108.526 0 196.504-11.198 196.504-25.012s-87.978-25.012-196.504-25.012c-108.527 0-196.505 11.198-196.505 25.012S161.94 469 270.467 469z" fill="#6C63FF"/><path d="M415.683 208.821a15.316 15.316 0 01-1.676-5.347s-2.837-1.496-1.703-6.191c1.134-4.694-3.217-7.256-3.217-7.256 0-.028-1.117-5.241-1.117-7.859 0-2.618-3.211-6.553-3.211-6.553s.559-5.498-1.329-8.736c-1.888-3.237-5.674-9.584-10.404-11.66 0 0-10.052-15.384-13.051-16.584 0 0-3.183-2.338-3.775-5.023a7.86 7.86 0 010-.921.632.632 0 010-.123v-.475c1.547-1.423 3.172-3.471 3.222-4.141.165-3.136.78-6.232 1.826-9.194.117-.307.235-.608.363-.904.129-.296.302-.698.475-1.044.972-1.942 2.284-3.745 2.893-5.833.044-.156.083-.312.122-.463.738-3.115-.145-6.48-1.865-9.199-1.809-2.858-4.467-5.096-7.26-7.055a32.464 32.464 0 00-9.214-4.806c-3.351-1.01-6.992-1.206-10.282-.073-3.289 1.133-6.143 3.584-9.532 4.466-1.43.368-2.938.452-4.306.999-2.759 1.116-4.507 3.907-5.104 6.81a9.457 9.457 0 00-.213 2.054c.007.686.138 1.364.386 2.004a2.856 2.856 0 001.999 1.92l.307.078.38.078c-.101.201-.212.397-.307.603a19.756 19.756 0 00-1.843 8.373 20.04 20.04 0 003.966 11.91 20.064 20.064 0 0010.275 7.219c.089.212.178.429.262.642.307.77.586 1.568.815 2.366-2.446 1.357-13.492 7.575-16.161 10.678.09-4.06-.641-8.096-2.151-11.867-1.999-4.683-5.813-8.791-10.727-10.281-2.793-.838-5.73-.827-8.567-1.407-2.234-.452-4.356-1.267-6.579-1.725a14.901 14.901 0 00-2.68-.307 23.531 23.531 0 00-4.909-4.013c-1.748-1.161-3.574-2.294-5.618-2.791-3.446-.86-7.048.14-10.611.519-3.736.402-7.344-.558-11.03-.352a35.526 35.526 0 00-9.493 1.703c-.76.271-1.495.609-2.195 1.01.045-.072.1-.134.145-.206.045-.073.101-.196.151-.296.05-.101.072-.134.1-.207.028-.072.09-.245.129-.374a4.012 4.012 0 00.151-.603v-.094a4.316 4.316 0 00.05-.559 5.969 5.969 0 00-.095-1.406c-.313-1.569-1.117-2.986-1.843-4.421s-1.335-2.992-1.201-4.588c0-.129 0-.263.051-.391.023-.154.054-.307.095-.458v-.033c.035-.153.077-.304.128-.452.05-.151.1-.302.156-.452.056-.151.118-.296.179-.447l.201-.446c.067-.157.14-.307.212-.458.151-.302.296-.603.441-.904.146-.302.246-.559.363-.799l.067-.15c.229-.559.436-1.117.615-1.675 0-.056.039-.112.056-.167.172-.55.314-1.11.424-1.675v-.178c.097-.567.153-1.14.168-1.714v-.179a8.293 8.293 0 00-.631-3.276c-.933-2.194-2.849-3.824-4.82-5.191-1.329-.921-2.82-1.803-4.468-1.77-1.915.04-3.596 1.34-5.495 1.608a8.287 8.287 0 01-3.624-.452c-2.647-.832-5.088-2.233-7.74-3.037a19.374 19.374 0 00-7.875-.748c-1.117.123-2.273.38-3.06 1.156-.787.775-1.072 1.987-1.508 3.042a8.842 8.842 0 01-3.228 3.963c-1.58 1.066-3.468 1.602-5.126 2.556-1.385.793-2.659 2.043-3.016 3.534a2.25 2.25 0 00-.067.39.39.39 0 000 .084 2.52 2.52 0 000 .407c.083.728.214 1.45.391 2.161v.122c.24 1.675-.413 3.422-1.363 4.868-.72 1.116-1.675 2.232-1.999 3.477-.397.09-.799.19-1.206.296h-4.166a1.117 1.117 0 00-1.117 1.116v.653a123.026 123.026 0 00-12.102 5.432s-9.366 12.352-10.36 14.038a3.908 3.908 0 00-.296 1.01c-1.842.558-3.959 15.975-3.959 15.975s2.675 3.986 5.646 7.703c1.173 3.427 4.63 6.14 4.752 10.689.179 6.877 0 17.968 0 17.968s2.653 16.991.749 24.711c-1.905 7.719.346 18.81.91 23.164.564 4.354.994 14.318 0 19.23-.994 4.912-1.418 12.497 0 9.829v1.116c.028 2.323.067 7.67 0 10.126-.095 3.182 1.039 9.171 0 11.415-1.039 2.244-1.229 11.794-1.229 13.106a22.438 22.438 0 01-1.507 9.734c-1.899 4.678 0 22.277 0 22.277s-5.847 12.537-4.06 14.971c1.787 2.434-3.318 1.674-3.318 1.674s-1.117 11.985-6.623 17.784c-5.506 5.799-14.754 46.608-13.431 56.901 0 0-3.97 3.907-4.35 4.867-.263.659-.157 6.386-.067 9.741a3.815 3.815 0 00-1.257 1.959c-1.323 5.146-2.932 14.697-2.932 14.697s-1.798 5.33 9.835 5.799c11.632.469 11.443-1.496 11.443-1.496s-.185-9.187.379-10.817c.564-1.63.559-7.815.559-7.904.269.033.533.096.787.19 2.078.932 5.105-2.791 3.591-6.369-1.513-3.578 4.161-22.646 4.161-22.646s15.888-30.253 15.888-43.052c0-.932 6.238-8.423 7.003-13.285a46.802 46.802 0 012.837-9.74s2.641 12.916 0 17.968c-2.642 5.051-5.87 44.554-3.407 48.483 2.463 3.93-1.513 9.919-2.083 11.041-.569 1.122-1.323 14.038-1.323 14.038h1.251l-.498 10.405s20.524-.279 24.014 1.496c3.491 1.775 24.779 1.674 24.779 1.674s9.834-3.65 4.35-7.396c-5.484-3.745-15.318-4.113-15.318-4.113s-8.154-11.169-9.684-11.638c-1.022-.313-2.608-1.614-4.049-1.323a29.71 29.71 0 011.402-6.442c3.217-10.482 1.888-50.917 1.888-50.917s2.462-4.303 2.462-8.423c0-4.119 3.781-7.675 3.781-7.675s10.974-44.922 13.403-55.215c2.167-9.087 5.077-21.088 3.775-28.931 0-.061 0-.117-.039-.178.218-5.9.347-13.558-.329-15.395-1.117-3.092-3.105-19.095-3.105-19.095s-.374-1.546-.749-3.651l9.623 3.21c.698 2.668 1.418 5.37.625 7.189l-.117.279c-.855 1.971-1.675 4.008-.776 7.58.464 2.083.731 4.204.798 6.336.129 2.791.112 5.671.14 7.708v39.681s-.145 17.968 1.178 27.792c.526 4.363.51 8.775-.044 13.134a72.203 72.203 0 01-.687 4.466c-.252 1.306-.442 2.065-.442 2.065a74.006 74.006 0 00-2.172 28.216c1.843 15.584-.491 12.631-.491 12.631s.206 6.743.915 7.865c.71 1.122-.915 5.895-.915 5.895s.619.558 1.591 1.272c-.067.307-.134.631-.195.983a25.203 25.203 0 00-.341 6.307c.034.463.045.949.034 1.463v.641a95.114 95.114 0 01-4.468 11.94c-2.167 4.605 3.686 9.991 6.579 12.28a5.174 5.174 0 003.233 1.116h3.703a5.194 5.194 0 004.138-2.048c1.58-2.077 3.663-5.353 3.485-7.993-.241-3.578-2.849-10.349-3.63-12.28.018-.163.027-.327.027-.492a13.668 13.668 0 00-.725-3.628l-1.157-5.961-.167-.86c.186-.284.345-.585.475-.898 0 0-1.279-6.738 0-8.563 1.279-1.825 8.65-27.658 8.65-38.185 0 0 5.395-10.667 5.819-19.374 0 0 0-13.335 2.128-18.672 2.128-5.336 4.68-20.915 4.68-20.915l1.156 14.597.972 25.269s-2.128 8.847 0 11.794c2.127 2.947 1.418 11.37 1.418 11.37l-1.558 29.483s-.14 4.912-.709 6.034c-.57 1.122-.899 15.423-3.133 16.684 0 0 .346.263.921.653-.167.224-.346.469-.558.759a15.364 15.364 0 00-2.307 6.944c0 .218-.044.424-.067.636a4.823 4.823 0 00-1.077 2.094 3.012 3.012 0 00.357 2.093c-.972 2.071-4.635 10.421-1.91 12.938 2.284 2.105 10.164 1.502 14.218 1.028a2.611 2.611 0 002.312-2.758 69.095 69.095 0 00-1.01-8.373l29.598.754c-3.267 2.568-7.355 6.425-7.355 6.425s-5.534 4.772-8.299 5.821c-2.764 1.05-4.59 5.27-.804 5.616 3.786.346 18.463.558 18.463.558l.519-.084c.045.882.559 1.636 1.994 1.887 3.546.631 35.892-4.069 35.892-4.069s-.045-1.189-.134-2.791c5.389.558 13.04.474 16.966-.726 5.205-1.596 12.481-5.989 12.481-5.989v-1.435c0-.876 0-1.97-.044-3.187-.051-1.831-.168-3.689-.436-4.181a44.725 44.725 0 01-2.647-7.189 6.77 6.77 0 004.59-2.635s-4.78-4.119-3.406-5.023c1.374-.905 1.843-5.057 1.843-5.057s-3.787-8.987-.045-20.966c3.742-11.978.045-42.678-1.848-45.084-1.894-2.406-.754-7.139-.754-7.139 2.647-4.304-2.603-17.03-2.603-17.03s2.033-22.093.52-24.069c-1.514-1.976.737-9.294.737-9.294a19.24 19.24 0 002.876-4.805 11.24 11.24 0 002.038 2.824s.257-.843.598-2.233c.176.196.363.382.558.558 0 0 2.273-7.379 2.083-14.864-.19-7.485-.754-22.327-.754-22.327l-.033-1.809 7.975-10.192s7.382-7.407 7.422-14.2a2.82 2.82 0 00.692-.62c2.094-1.579.86-4.599-.558-7.256zm-106.867 18.42l.129 2.311a30.439 30.439 0 01-.531-3.087c.251.447.413.731.413.731l-.011.045zm65.541-93.875a4.95 4.95 0 00.759-.463l-.72.664a.381.381 0 00-.039-.201zm-113.311-12.073c-.289.25-.563.516-.821.798-2.687 2.953-3.547 7.479-6.936 9.601-.961.597-2.055.954-2.999 1.574-2.29 1.501-3.256 4.214-3.87 6.932 0-.201.033-.396.061-.591a45.14 45.14 0 00-.475 2.232 8.82 8.82 0 00-.095 2.992c.095 1.384.592 2.624 1.877 2.947.648.162 1.34 0 1.999.129 1.285.234 2.1 1.434 2.346 2.74.002.047.002.093 0 .14v-.034c0 .151.044.307.055.458a.85.85 0 000 .101 14.888 14.888 0 01-1.116 3.767l-.034-.134c-.145.397-.285.793-.396 1.195a3.4 3.4 0 00-.129 1.78c-.013.345.064.688.223.994a2.506 2.506 0 001.81 1.116 5.104 5.104 0 002.558-.223 5.575 5.575 0 00-.559 1.982 6.822 6.822 0 00-5.166 4.867 70.56 70.56 0 01-1.641 4.873c-.067-2.272-.235-3.907-.559-4.549-1.675-3.349-3.401-10.533-3.401-10.533v-6.592c0-4.053-7.478-6.855-7.545-6.883a40.76 40.76 0 011.48-6.882c.056-.19.123-.374.185-.558a21.577 21.577 0 0011.944-4.004 21.56 21.56 0 007.669-9.99c.061-.167.111-.335.173-.502a5.29 5.29 0 002.234.435 4.075 4.075 0 001.128-.178zm-14.163 91.212c0-4.376-.486-9.16-.486-9.16s.073-.971.19-2.601a404.68 404.68 0 006.618-6.023c.374-.34.558-.558.558-.558a4.22 4.22 0 011.458 2.506 9.197 9.197 0 01.061 3.673c-.379 2.339.615 5.47 1.274 9.054.437 2.132.604 4.312.497 6.486l-10.17-3.377zm51.378 203.624a38.713 38.713 0 014.401-14.596c3.971-7.301 8.935-33.134 8.935-33.134s1.279-11.23.849-18.392c-.262-4.465.676-17.075 1.726-26.675.285 1.853.486 3.125.491 3.231 0 .358 3.731 15.992 4.915 22.886v31.85a12.773 12.773 0 01-1.145 5.28l-3.658 8.116a11.446 11.446 0 00-1.011 4.59 11.44 11.44 0 00.916 4.609c.592 1.418.938 2.679.385 2.835a8.763 8.763 0 00-1.357.559 3.221 3.221 0 00-.603-.469l-12.04 9.829-3.541.48v-.446c.29-.131.55-.319.765-.553h-.028zm47.614 15.914l-.469-2.088-.128-.558 1.117.084s-3.122-14.318-.994-20.357c.444-1.465.741-2.97.888-4.493.106-.871.201-1.809.284-2.791.922 2.791 1.732 5.671 1.235 6.302-.994 1.261-.123 8.423.15 8.841.274.419 2.123 2.791.844 4.823-1.279 2.032-1.117 8.272-1.117 8.272s.324.039.865.084c-.943.55-1.838 1.18-2.675 1.881zm15.905-3.104c-.089-.156-.173-.318-.257-.474 1.815-.642 4.563-.424 4.563-.424s-4.255-15.557-2.977-18.928c1.279-3.372-5.394-35.941-8.656-43.382-3.261-7.441 1.117-28.216 1.117-28.216l7.126-18.805 5.903 19.497c-.944 5.414.949 17.047 3.786 19.855 2.837 2.807 2.268 6.547 1.117 8.049-1.15 1.501.559 15.344.559 15.344s.379 14.228-.559 19.28c-.938 5.051.559 7.116 2.458 9.36 1.898 2.244-2.078 2.06-4.351 4.198-2.273 2.138 0 4.789 0 4.789l.838-.061c.395 1.04.651 2.129.759 3.237a1.938 1.938 0 01-.558 1.407c-1.519 1.311-3.976 7.769-6.143 9.36-.246.184-.559.419-.855.692-.128 0-.273.056-.435.095a37 37 0 01-3.457-4.873h.022zM202.564 127.394a20.364 20.364 0 009.644-4.494h5.418a21.016 21.016 0 002.06 3.578c-.05.123-.089.24-.139.369a14.22 14.22 0 01-1.084 2.126s-6.143.084-9.633 2.065a6.607 6.607 0 00-1.022.709c-2.357 2.015-7.059 2.027-9.22 1.909l-1.262-.787-.229 1.022-.134.111.078-9.416 5.523 2.808zm66.01 288.512v.759a5.654 5.654 0 010-.759zm0 .871l.061.608c0-.229-.022-.43-.039-.62l-.022.012z" fill="url(#paint0_linear)"/><path d="M263.038 219.956l-22.04-7.43-4.407 13.058 22.04 7.431 4.407-13.059z" fill="#D38884"/><path d="M391.931 270.651s3.351 6.14-2.976 14.138c0 0-2.234 7.229-.743 9.199 1.491 1.97-.514 23.918-.514 23.918s5.166 12.654 2.564 16.935c0 0-1.117 4.7.742 7.095 1.86 2.394 5.496 32.904 1.815 44.816-3.68 11.912.045 20.837.045 20.837s-.463 4.091-1.815 5.024c-1.351.932 3.351 5.023 3.351 5.023a6.497 6.497 0 01-7.5 2.233c-4.837-1.675-18.798-.558-18.798-.558s-2.234-2.629 0-4.756c2.234-2.127 6.143-1.942 4.278-4.175-1.865-2.233-3.351-4.281-2.418-9.305.932-5.024.558-19.162.558-19.162s-1.675-13.771-.558-15.255c1.117-1.485 1.675-5.214-1.117-8.005-2.793-2.791-4.652-14.351-3.725-19.731l-10.421-34.781-20.479-33.49 30.084-4.338 27.627 4.338z" fill="#4C4981"/><path d="M372.57 140.779v21.211h-28.482l-.743-2.082s2.793-7.77 6.518-12.046c1.848-2.127.988-6.045-.352-9.45a42.803 42.803 0 00-3.189-6.369s25.689-16.187 24.388-6.324a33.622 33.622 0 00-.263 6.358c.313 5.715 2.123 8.702 2.123 8.702z" fill="#FEBFBA"/><path opacity=".1" d="M370.71 125.708a33.615 33.615 0 00-.263 6.357 19.966 19.966 0 01-20.936 6.336 42.803 42.803 0 00-3.189-6.369s25.689-16.187 24.388-6.324z" fill="#000"/><path d="M375.072 118.747a19.915 19.915 0 01-23.795 19.553 19.916 19.916 0 01-15.662-15.641 19.91 19.91 0 018.471-20.445 19.928 19.928 0 0111.071-3.355 19.897 19.897 0 0114.084 5.816 19.869 19.869 0 015.831 14.072z" fill="#FEBFBA"/><path opacity=".1" d="M347.629 145.378l-8.751 13.955-5.026 37.548v30.784l1.117 10.974 20.746 1.49 9.226-30.984 7.076-31.716 7.628-6.514-18.055-20.469s-3.484 4.885-7.422 7.726a3.354 3.354 0 01-5.194-1.799 3.348 3.348 0 01.096-2.109c1.117-2.924 2.128-6.173 1.351-6.949a8.06 8.06 0 00-3.725-1.914" fill="#000"/><path d="M347.07 145.936l-8.751 13.955-5.026 37.549v30.783l1.117 10.974 20.747 1.49 9.226-30.984 7.075-31.716 7.629-6.514-18.055-20.468s-3.485 4.884-7.422 7.725a3.355 3.355 0 01-4.008-.052 3.344 3.344 0 01-1.091-3.855c1.117-2.925 2.128-6.174 1.352-6.95a8.07 8.07 0 00-3.725-1.914" fill="#E6E8EC"/><path opacity=".1" d="M377.043 275.858h18.055l-2.418-11.721-.374-5.113-8.746 5.487-6.517 11.347z" fill="#000"/><path d="M377.043 274.742h18.055l-2.418-11.722-.374-5.113-8.746 5.487-6.517 11.348z" fill="#E6E8EC"/><path opacity=".1" d="M351.354 141.041s-16.385 9.043-16.944 11.833c-.558 2.791-4.467 21.954-4.467 21.954v17.303l16.195-5.933-.927-23.661 5.769-14.128s1.357-4.65.374-7.368z" fill="#000"/><path d="M350.795 140.483s-16.385 9.042-16.943 11.833c-.559 2.791-4.468 21.954-4.468 21.954v17.303l16.195-5.933-.927-23.662 5.769-14.127s1.357-4.65.374-7.368z" fill="#F16726"/><path opacity=".1" d="M395.841 268.044c.184 7.44-2.05 14.775-2.05 14.775-2.792-2.64-5.149-10.466-5.992-14.334-1.407 4.767-12.621 13.329-12.621 13.329v2.601c-.559 7.257-24.014 2.233-24.014 2.233l1.491-93.4s1.86-17.678-.558-23.014c-2.418-5.336-1.676-14.943-1.676-14.943s2.234-3.907 4.652-5.207c2.418-1.301 15.944-14.106 16.369-14.513a11.488 11.488 0 000 1.596c.346 4.683 3.719 4.985 3.719 4.985 2.977 1.194 12.845 16.489 12.845 16.489 4.651 2.059 8.376 8.372 10.236 11.587 1.86 3.215 1.307 8.686 1.307 8.686s3.161 3.907 3.161 6.514c0 2.606 1.117 7.814 1.117 7.814l-9.304 21.551.558 31.08s.575 14.73.76 22.171z" fill="#000"/><path d="M396.958 266.369c.184 7.441-2.05 14.775-2.05 14.775-2.792-2.64-5.149-10.466-5.992-14.334-1.408 4.767-12.621 13.33-12.621 13.33v2.601c-.559 7.256-24.014 2.232-24.014 2.232l.123-7.619v-.72l1.357-85.039s1.859-17.677-.559-23.013c-2.418-5.337-1.675-14.943-1.675-14.943s2.234-3.907 4.652-5.208c2.418-1.3 15.944-14.105 16.368-14.512a11.806 11.806 0 000 1.596c.347 4.683 3.72 4.985 3.72 4.985 2.976 1.194 12.844 16.488 12.844 16.488 4.652 2.06 8.377 8.373 10.237 11.588 1.859 3.215 1.307 8.685 1.307 8.685s3.16 3.908 3.16 6.514c0 2.607 1.117 7.815 1.117 7.815l-8.237 19.123-1.044 2.411.558 31.08s.564 14.725.749 22.165z" fill="#F16726"/><path opacity=".1" d="M392.953 435.593s-7.165 4.371-12.286 5.956c-5.121 1.585-16.659 1.205-20.942 0-2.865-.81-1.351-3.578.609-5.794a19.233 19.233 0 012.742-2.579c2.144-1.585 4.562-8.004 6.054-9.305 1.491-1.3-.47-5.861-.47-5.861s3.446-4.091 5.122-4.649c1.675-.559 9.957 4.186 9.957 4.186l6.054 1.021c-.654.838 2.138 7.815 2.697 8.836.262.486.38 2.334.43 4.153.061 2.038.033 4.036.033 4.036z" fill="#000"/><path d="M392.953 436.151s-7.165 4.371-12.286 5.956c-5.121 1.585-16.659 1.205-20.942 0-2.865-.81-1.351-3.578.609-5.794a19.233 19.233 0 012.742-2.579c2.144-1.585 4.562-8.004 6.054-9.305 1.491-1.3-.47-5.861-.47-5.861s3.446-4.091 5.122-4.649c1.675-.558 9.957 4.186 9.957 4.186l6.054 1.022c-.654.837 2.138 7.814 2.697 8.836.262.485.38 2.333.43 4.152.061 2.038.033 4.036.033 4.036z" fill="#626696"/><path opacity=".1" d="M392.953 436.151s-7.165 4.371-12.286 5.956c-5.121 1.585-16.659 1.206-20.942 0-2.865-.809-1.351-3.578.609-5.794 5.054.921 22.662.117 22.662.117l9.924-4.337c.061 2.06.033 4.058.033 4.058zm-13.492-3.444s-8.282-4.465-12.381-2.512c-4.099 1.954 12.381 2.512 12.381 2.512z" fill="#000"/><path d="M316.914 332.235v49.538a12.787 12.787 0 01-1.117 5.247l-3.625 8.055a11.513 11.513 0 00-.095 9.137c.559 1.412.922 2.663.38 2.819-1.301.374-4.467 2.288-4.467 2.288s18.054 21.714 24.756 16.316c6.701-5.398 3.541-41.305 3.541-41.305s.374-31.627.742-32.185c.369-.558.933-17.862.933-17.862l-21.048-2.048z" fill="#4C4981"/><path opacity=".1" d="M376.295 141.041l-17.313 13.134h-7.444s2.234-3.907 4.652-5.208c2.418-1.3 15.944-14.105 16.369-14.513a3.647 3.647 0 000 1.597c.603 2.668 3.736 4.99 3.736 4.99z" fill="#000"/><path d="M376.295 140.483l-17.313 13.134h-7.444s2.234-3.907 4.652-5.208c2.418-1.3 15.944-14.105 16.369-14.513a3.647 3.647 0 000 1.597c.603 2.668 3.736 4.99 3.736 4.99z" fill="#F16726"/><path opacity=".1" d="M375.072 118.747a19.881 19.881 0 01-6.205 14.446v-.268c.184-3.137-.385.039.559-3.254.273-.921-.391-1.937-1.039-2.652-.648-.714-1.854-1.01-2.586-.379-.731.631-.676 1.853-1.379 2.523-.883.837-2.463.24-3.061-.821-.597-1.06-.519-2.355-.485-3.572.033-1.217 0-2.54-.81-3.466-.81-.927-1.944-1.212-2.53-2.166-.871-1.412.101-3.349-.491-4.895-.559-1.418-2.234-2.071-3.77-1.999-3.557.173-7.065 2.579-10.667 1.145-1.418-.558-2.434-2.015-3.814-2.534a8.625 8.625 0 00-1.765-.413 19.928 19.928 0 0133.614-4.174 19.904 19.904 0 014.406 12.479h.023z" fill="#000"/><path d="M334.706 107.79a7.067 7.067 0 01-.173-4.03c.592-2.869 2.307-5.682 5.026-6.77 1.352-.559 2.832-.631 4.239-.994 3.351-.87 6.104-3.293 9.376-4.432 3.273-1.139 6.842-.938 10.125.073a31.905 31.905 0 019.064 4.772c2.731 1.948 5.339 4.175 7.12 7.011 1.782 2.835 2.653 6.391 1.72 9.606-.603 2.076-1.887 3.868-2.848 5.8-1.675 3.421-2.345 7.256-2.624 11.068-.084 1.161-4.865 6.47-5.753 5.431-.67-.776-.608-1.92-.558-2.941.184-3.143-.385.033.558-3.254.268-.927-.396-1.943-1.044-2.657-.648-.715-1.854-1.005-2.58-.38-.726.625-.681 1.859-1.385 2.523-.882.837-2.463.24-3.06-.821-.598-1.06-.52-2.349-.481-3.566.039-1.217 0-2.546-.815-3.472-.815-.927-1.943-1.211-2.524-2.16-.871-1.418.095-3.349-.497-4.901-.559-1.418-2.234-2.071-3.77-1.998-3.552.178-7.064 2.578-10.666 1.144-1.419-.558-2.43-2.015-3.815-2.529-1.926-.742-3.635-.072-4.635-2.523z" fill="#36123A"/><path opacity=".1" d="M331.523 429.146l-46.257-1.189c-2.792-1.541-3.507-3.154-3.234-4.605.509-2.679 4.351-4.784 4.351-4.784l12.286-1.674 11.845-9.768c1.893 1.116 2.396 4.465 2.396 4.465s15.173 10.232 17.217 10.606c1.027.184 1.374 1.925 1.463 3.617a24.542 24.542 0 01-.067 3.332z" fill="#000"/><path d="M330.965 429.704l-46.258-1.189c-2.792-1.54-3.507-3.153-3.233-4.605.508-2.679 4.35-4.783 4.35-4.783l12.286-1.675 11.845-9.768c1.894 1.116 2.396 4.465 2.396 4.465s15.173 10.232 17.217 10.606c1.028.184 1.374 1.926 1.464 3.617.053 1.111.03 2.224-.067 3.332z" fill="#626696"/><path opacity=".1" d="M330.965 429.704l-46.258-1.189c-2.792-1.54-3.507-3.154-3.233-4.605l49.558 2.462c.053 1.111.03 2.224-.067 3.332zm39.047-300.614a10.18 10.18 0 00.558-1.674c.268-.927-.396-1.943-1.044-2.657-.648-.715-1.854-1.005-2.58-.38-.726.626-.681 1.859-1.385 2.523-.882.838-2.463.24-3.06-.82-.598-1.061-.52-2.35-.481-3.567.039-1.217 0-2.545-.815-3.472-.815-.926-1.943-1.211-2.524-2.16-.871-1.418.095-3.349-.497-4.901-.559-1.418-2.234-2.071-3.77-1.998-3.552.178-7.064 2.579-10.666 1.144-1.419-.558-2.43-2.015-3.815-2.528-1.96-.732-3.669-.062-4.663-2.523a7.068 7.068 0 01-.173-4.03c.034-.162.073-.324.112-.48a11.271 11.271 0 00-.67 2.154 7.063 7.063 0 00.167 4.069c.994 2.462 2.703 1.792 4.663 2.523 1.385.514 2.396 1.965 3.815 2.529 3.602 1.434 7.114-.966 10.666-1.145 1.519-.072 3.228.559 3.77 1.999.592 1.557-.375 3.483.497 4.901.558.949 1.804 1.311 2.524 2.16.72.848.849 2.232.815 3.472-.033 1.239-.117 2.506.481 3.566.597 1.061 2.178 1.675 3.06.821.704-.664.648-1.887 1.385-2.523.737-.636 1.932-.329 2.58.38.648.708 1.301 1.702 1.05 2.617zm.53 4.55c-.67-.776-.608-1.921-.558-2.942a5.967 5.967 0 000-1.557c-.944 3.243-.38.1-.559 3.231-.061 1.022-.122 2.166.559 2.942.888 1.038 5.668-4.27 5.752-5.431 0-.207.039-.419.056-.625-1.268 1.909-4.529 5.219-5.25 4.382zm8.377-16.5a21.6 21.6 0 00-1.379 3.611c.24-.659.514-1.306.821-1.937.96-1.931 2.234-3.723 2.848-5.799.045-.151.084-.307.117-.463-.664 1.585-1.642 3.053-2.407 4.588zm-60.592 271.287s1.178 3.717 4.635 4.186c3.457.469-4.635-4.186-4.635-4.186zm-3.91 18.699s3.351.095 6.657 0-6.657 0-6.657 0zm58.169-40.937s4.189.189 6.702-1.58c2.513-1.769-6.702 1.58-6.702 1.58zm16.106-22.886s-6.612 3.349-5.305 4.745c1.307 1.395 5.305-4.745 5.305-4.745zm-3.909 10.327c.464-.279 3.909-2.138 4.747-3.997.838-1.859-4.747 3.997-4.747 3.997z" fill="#000"/><path d="M268.992 428.242l-4.188 1.674-6.283 1.396-5.506-1.954-1.474-4.465s2.457-7.843 2.546-13.341c0-.508 0-.993-.033-1.451a25.222 25.222 0 01.335-6.274 22.63 22.63 0 01.921-3.634h8.796l.955 4.957 1.117 5.928c.4 1.164.64 2.377.715 3.605.01.364-.043.727-.157 1.072a.984.984 0 00-.056.257c-.02.98.07 1.959.268 2.919v.039c.648 3.751 2.044 9.272 2.044 9.272zm26.108 6.14l-14.519-1.814s.776-2.842 1.412-6.699c.241-1.445.458-3.036.609-4.672a15.428 15.428 0 012.273-6.904 9.57 9.57 0 011.569-1.96l8.656 1.954s.067 1.675.095 3.751c.039 3.109 0 7.167-.513 8.043l-.034.067c-.771 1.586.452 8.234.452 8.234z" fill="#B15885"/><path opacity=".1" d="M266.703 416.012l-.034-1.948.246.619c.01.364-.043.727-.156 1.072a.945.945 0 00-.056.257zm2.289 12.23l-4.188 1.674-6.283 1.396-5.506-1.954-1.474-4.465s2.457-7.843 2.546-13.341c.196-.647.302-1.021.302-1.021l-1.117 13.396a3.039 3.039 0 003.066 3.282l8.137-.117a3.039 3.039 0 002.848-2.105 3.03 3.03 0 00.128-1.244l-.491-4.784c.636 3.762 2.032 9.283 2.032 9.283z" fill="#000"/><path d="M254.389 411.089a98.251 98.251 0 01-4.736 12.966c-2.133 4.577 3.63 9.936 6.473 12.208a5.084 5.084 0 003.183 1.116h3.647a5.091 5.091 0 004.076-2.032c1.553-2.065 3.597-5.319 3.424-7.943-.28-4.186-3.787-12.782-3.787-12.782l.039 2.3.754 7.396a3.022 3.022 0 01-.748 2.327 3.051 3.051 0 01-2.223 1.022l-8.136.111a3.041 3.041 0 01-2.259-.96 3.033 3.033 0 01-.807-2.316l1.1-13.413z" fill="#626696"/><path opacity=".1" d="M264.106 400.193l.955 4.957c-2.357 4.27-8.042.675-10.672-1.323a22.63 22.63 0 01.921-3.634h8.796zm31.089 17.845c-2.87 1.345-8.756-2.629-10.32-3.745a9.536 9.536 0 011.569-1.96l8.656 1.954s.067 1.664.095 3.751z" fill="#000"/><path d="M313.39 312.559c-1.257 2.651-3.909 30.979-3.49 38.096.418 7.116-.838 18.28-.838 18.28s-4.887 25.676-8.796 32.933a38.833 38.833 0 00-4.328 14.512c-2.792 3.07-11.448-3.488-11.448-3.488 2.234-1.256 2.513-15.49 3.071-16.606.559-1.117.698-6.001.698-6.001l1.536-29.304s.698-8.373-1.396-11.303c-2.094-2.931 0-11.722 0-11.722l-.961-25.118-1.117-14.513s-2.513 15.49-4.607 20.792c-2.094 5.303-2.094 18.56-2.094 18.56-.419 8.652-5.724 19.257-5.724 19.257 0 10.466-7.26 36.142-8.517 37.956-1.256 1.814 0 8.513 0 8.513-2.792 6.837-12.347-1.814-12.347-1.814s1.597-4.745.899-5.861c-.698-1.117-.899-7.815-.899-7.815s2.295 2.931.48-12.559a74.366 74.366 0 012.139-28.049s2.468-9.768 1.162-19.536c-1.307-9.768-1.162-27.63-1.162-27.63v-21.953l2.329-4.281s52.634-8.233 56.544-3.21c.6.963.981 2.045 1.116 3.171 1.866 9.969-1.15 36.376-2.25 38.693z" fill="#E6E8EC"/><path opacity=".1" d="M308.219 344.023s-4.887 1.468-5.094 2.445c0 0 4.608-1.451 5.094-2.445zm-.626 6.14s-11.8 5.376-16.966-.697a24.735 24.735 0 0016.966.697zm-15.33 4.12s12.147 2.651 14.308 0h-14.308zm-30.955-14.167s-3.401 1.758-4.563.703l4.563-.703zm.352 3.907s-5.456.558-5.585 1.223c-.128.664 5.585-1.223 5.585-1.223zm-4.021-63.074s24.499-.212 28.688 1.395c4.188 1.608 7.193-1.881 7.193-1.881l-6.702 14.72s-2.865-16.952-27.995-10.606l-1.184-3.628z" fill="#000"/><path d="M255.595 145.188c-.558.893-1.117 2.054-.558 2.936.235.283.487.551.754.804.33.45.554.969.653 1.518.664 2.68.804 5.699-.693 8.016-.698 1.077-1.708 1.937-2.278 3.087-.804 1.607-.614 3.522-.324 5.297a19.947 19.947 0 001.893 6.363 8.682 8.682 0 004.864 4.315c1.24.379 2.737.491 3.463 1.563.804 1.172.34 3.103 1.547 3.857.826.519 1.899.1 2.792-.324 1.24-.592 2.597-1.323 3.016-2.629.262-.826.111-1.797.608-2.506.403-.559 1.117-.849 1.525-1.44.214-.393.338-.827.363-1.273l.748-5.671a5.85 5.85 0 00.067-1.563c-.167-1.301-1.15-2.322-2.049-3.277-1.43-1.518-2.826-3.198-3.351-5.219-.799-3.142.653-6.374.894-9.606a5.04 5.04 0 00-.151-1.909 6.277 6.277 0 00-1.48-2.154 11.24 11.24 0 00-2.234-2.016c-1.899-1.172-3.943-.921-6.054-.904-2.111.017-2.892.96-4.015 2.735z" fill="#1E1637"/><path d="M254.361 191.573l-2.234 4.187-.558.558c-2.513 2.355-12.504 11.66-13.845 11.906-1.535.279-9.359-12.169-9.359-12.169l11.772-9.93.469-.396 13.755 5.844zm44.23-11.443l-18.988 7.536s-18.708 2.233-12.844-8.094a19.304 19.304 0 001.859-4.527c2.43-8.93-1.859-17.521-1.859-17.521s22.059-19.536 19.266-5.024c-1.39 7.257 1.732 14.134 5.211 19.224a47.035 47.035 0 007.355 8.406z" fill="#B15885"/><path opacity=".1" d="M274.063 163.385c10.178 0 18.429-8.247 18.429-18.42 0-10.173-8.251-18.42-18.429-18.42-10.178 0-18.429 8.247-18.429 18.42 0 10.173 8.251 18.42 18.429 18.42z" fill="#000"/><path d="M274.063 162.827c10.178 0 18.429-8.247 18.429-18.42 0-10.173-8.251-18.42-18.429-18.42-10.178 0-18.429 8.247-18.429 18.42 0 10.173 8.251 18.42 18.429 18.42z" fill="#B15885"/><path opacity=".1" d="M298.591 180.13l-18.988 7.536s-18.708 2.233-12.844-8.094a19.304 19.304 0 001.859-4.527c4.245 5.437 10.706 6.202 10.706 6.202 7.545.787 8.985-4.929 11.912-9.523a47.035 47.035 0 007.355 8.406zm-44.23 11.443l-2.234 4.187-.559.558-3.077-2.68-8.444-7.368.09-.161.469-.397 13.755 5.861zm61.279 82.293c-5.232 2.232-13.777 2.885-17.049 3.014-4.747.19-9.958.374-19.825 5.023-9.868 4.65-23.132-2.601-23.132-2.601v-1.116l2.329-4.281s52.635-8.233 56.544-3.21a7.733 7.733 0 011.133 3.171z" fill="#000"/><path d="M319.901 268.697c-.748 5.582-16.569 6.882-21.316 7.067-4.747.184-9.957.374-19.825 5.023-9.868 4.65-23.132-2.601-23.132-2.601v-.759c0-2.177.028-8.585 0-13.045v-3.689c0-2.027 0-4.879-.139-7.664a34.232 34.232 0 00-.743-6.291c-.888-3.55-.078-5.582.765-7.535l.117-.279c.883-2.043-.139-5.208-.882-8.183-.353-1.69-.54-3.41-.558-5.136-.051-1.713 0-3.053 0-3.053 1.675-4.091 1.351-8.088.698-11.643-.648-3.562-1.631-6.699-1.257-9.004a9.211 9.211 0 00-.056-3.65 4.205 4.205 0 00-1.435-2.49l-3.094-2.696-8.444-7.357s1.704-3.064 3.625-7.468a85.965 85.965 0 003.222-8.485c.145-.446.279-.898.413-1.35 2.603-8.931 16.564-3.723 16.564-3.723.19 16.003 14.336 17.677 14.336 17.677 8.935.932 9.309-7.256 13.727-11.906 4.417-4.649 20.339 7.257 20.339 7.257s.123 4.314-.084 10.086a121.802 121.802 0 01-1.43 15.383c-.664 3.908-1.614 7.525-2.954 10.048a20.708 20.708 0 00-1.117 2.545 24.549 24.549 0 00-1.508 8.747c0 .558 0 1.116.056 1.635.117 1.884.412 3.753.883 5.582.163.655.361 1.302.591 1.937 0 0 .497 1.088 1.296 2.891a559.022 559.022 0 014.568 10.678 283.98 283.98 0 012.91 7.346c1.351 3.561 2.524 6.966 3.228 9.623.497 2.004.759 3.567.636 4.482z" fill="#FFCDE5"/><path d="M312.742 187.8a121.802 121.802 0 01-1.43 15.383 23.701 23.701 0 01-4.629.648c-2.363.061-4.702-.419-7.065-.48-2.535-.067-5.059.346-7.595.496-5.059.307-10.119-.413-15.14-1.116l-4.724-.686a36.247 36.247 0 01-3.87-.704c-1.067-.268-2.1-.642-3.15-.965a57.795 57.795 0 00-11.554-2.127 4.206 4.206 0 00-1.436-2.49l-3.094-2.696a6559.926 6559.926 0 01-4.261-12.994 29.974 29.974 0 01-.558-1.825 85.715 85.715 0 003.222-8.485 44.789 44.789 0 002.564 6.464 17.755 17.755 0 002.267 3.667c2.2 2.618 5.462 4.081 8.701 5.169 8.377 2.791 17.234 3.695 26.013 4.555 2.854.335 5.726.501 8.6.497 2.234-.056 4.468-.318 6.701-.559a75.253 75.253 0 0010.438-1.752zm-5.523 27.993a24.54 24.54 0 00-1.508 8.746h-.061c-1.894.787-3.697 1.814-5.669 2.384-2.112.514-4.281.76-6.455.731-3.243.093-6.49.178-9.74.257-9.935.24-20.071.396-29.598-2.328-.051-1.714 0-3.053 0-3.053 1.675-4.092 1.351-8.088.698-11.644.966.475 2.005 1.211 2.446 1.418a40.74 40.74 0 005.484 2.104c4.914 1.479 10.052 1.993 15.201 2.233 8.36.396 16.737.268 25.081-.385a31.006 31.006 0 004.121-.463zm5.886 31.492c-.854.156-1.703.329-2.552.502a61.538 61.538 0 00-6.931 1.708c-2.066.687-4.048 1.591-6.143 2.289-4.92 1.675-10.169 2.104-15.368 2.3a173.57 173.57 0 01-26.65-1.055 34.125 34.125 0 00-.743-6.291c-.888-3.55-.078-5.582.765-7.535 2.357.167 4.959.898 6.305 1.116 4.278.681 8.561 1.49 12.912 1.552a75.267 75.267 0 007.857-.447l6.445-.591a51.94 51.94 0 005.947-.782c1.905-.402 3.759-1.016 5.641-1.529 2.597-.704 5.3-1.223 7.919-1.909a350.574 350.574 0 014.596 10.672zm6.138 16.969a49.517 49.517 0 00-9.087 3.851c-2.233 1.273-4.378 2.791-6.74 3.863a36.927 36.927 0 01-8.075 2.294 362.6 362.6 0 01-15.922 2.73c-7.891 1.116-16.033 1.964-23.802.435 0-2.177.028-8.585 0-13.045 2.837-.63 6.702-.15 9.103-.05 5.585.223 11.097 1.351 16.648 1.005a63.346 63.346 0 008.41-1.295l15.777-3.16a7.67 7.67 0 002.468-.792 10.928 10.928 0 001.899-1.675c1.72-1.674 3.909-2.752 6.065-3.767 1.407 3.544 2.552 6.949 3.256 9.606z" fill="#EB0C8B"/><path opacity=".1" d="M304.968 248.273c1.832-.223 3.664.72 5.496.469-.637.977-1.972 1.116-3.122 1.284a31.64 31.64 0 00-3.675.843c-.486.128-3.272 1.172-3.619.826-.821-.832 4.172-3.333 4.92-3.422zm1.106 6.073c-.83.54-1.605 1.161-2.312 1.853a11.45 11.45 0 01-4.384 2.266 4.722 4.722 0 005.333-.407c.41-.436.889-.8 1.419-1.077.43-.168.916-.151 1.346-.33.558-.24 1.742-1.635 1.429-2.316-.402-.86-2.272-.301-2.831.011zm-9.293-21.713c.503.558 1.363.558 2.072.832.465.202.913.441 1.341.714a6.984 6.984 0 005.707.463c-.709-1.066-1.53-2.177-2.748-2.567-1.01-.33-2.105-.084-3.155.1a5.613 5.613 0 01-2.457.045c-.676-.19-1.759-.692-.76.413zm-38.304-107.975c-2.642 2.936-3.491 7.435-6.83 9.545-.939.592-2.022.949-2.949 1.563-2.725 1.803-3.546 5.359-4.149 8.568-.38 2.026-.313 4.812 1.675 5.32.642.162 1.324 0 1.971.128 1.676.302 2.519 2.233 2.374 3.941-.145 1.708-.966 3.209-1.43 4.828-.273.7-.263 1.479.028 2.171a2.49 2.49 0 001.776 1.117c2.234.402 4.507-.916 5.847-2.746 1.34-1.831 1.927-4.097 2.396-6.313a92.389 92.389 0 001.675-11.125c.279-3.21.419-6.559 1.966-9.389 1.547-2.83 5.026-4.917 8.014-3.723 2.122.843 3.658 3.148 5.942 3.243.676.028 1.407-.145 1.999.19.422.298.747.713.933 1.195 2.423 4.845 4.585 10.125 4.004 15.511-.363 3.35-1.793 6.643-1.497 10.02.212 2.433 1.318 4.75 1.301 7.195-.016 2.445-1.083 4.61-1.77 6.893a21.836 21.836 0 00-.603 9.936 6.571 6.571 0 001.178 3.081 2.796 2.796 0 002.96 1.044l.86 5.894c.027.431.163.848.397 1.211 1.033 1.329 3.105-.373 4.78-.184.62 2.233 2.971 3.567 5.244 4.019 2.273.452 4.646.285 6.914.765 2.139.452 4.138 1.468 6.31 1.725 5.216.614 10.393-4.17 10.192-9.422-.139-3.651-2.407-6.833-3.602-10.293-3.351-9.746 1.988-20.96-1.575-30.644-1.117-3.093-3.122-5.805-4.467-8.82-2.134-4.8-2.664-10.438-6.043-14.468a22.63 22.63 0 00-4.942-4.113c-1.726-1.156-3.519-2.283-5.529-2.791-3.39-.86-6.936.134-10.415.513-3.68.397-7.227-.558-10.857-.351a34.615 34.615 0 00-9.315 1.674 11.668 11.668 0 00-4.763 3.092z" fill="#000"/><path d="M258.477 124.1c-2.642 2.936-3.491 7.435-6.83 9.545-.939.592-2.022.949-2.949 1.563-2.725 1.803-3.546 5.359-4.149 8.568-.38 2.026-.313 4.812 1.675 5.32.642.162 1.324 0 1.971.128 1.676.301 2.519 2.233 2.374 3.941-.145 1.708-.966 3.209-1.43 4.828-.273.7-.263 1.479.028 2.171a2.49 2.49 0 001.776 1.117c2.234.402 4.507-.916 5.847-2.747 1.34-1.83 1.927-4.097 2.396-6.313a92.342 92.342 0 001.675-11.124c.279-3.21.419-6.559 1.966-9.389 1.547-2.83 5.026-4.917 8.014-3.723 2.122.843 3.658 3.148 5.942 3.243.676.028 1.407-.145 1.999.19.422.298.747.713.933 1.195 2.423 4.845 4.585 10.125 4.004 15.511-.363 3.349-1.793 6.643-1.497 10.02.212 2.433 1.318 4.75 1.301 7.195-.016 2.445-1.083 4.61-1.77 6.893a21.836 21.836 0 00-.603 9.936 6.571 6.571 0 001.178 3.081 2.796 2.796 0 002.96 1.044l.86 5.894c.027.431.163.848.397 1.211 1.033 1.329 3.105-.374 4.78-.184.62 2.233 2.971 3.567 5.244 4.019 2.273.452 4.646.285 6.914.765 2.139.452 4.138 1.468 6.31 1.725 5.216.614 10.393-4.17 10.192-9.422-.139-3.651-2.407-6.833-3.602-10.293-3.351-9.746 1.988-20.96-1.575-30.644-1.117-3.093-3.122-5.806-4.467-8.82-2.134-4.8-2.664-10.438-6.043-14.468a22.635 22.635 0 00-4.942-4.114c-1.726-1.155-3.519-2.282-5.529-2.79-3.39-.86-6.936.134-10.415.513-3.68.396-7.227-.558-10.857-.352-3.167.13-6.301.693-9.315 1.675a11.668 11.668 0 00-4.763 3.092z" fill="#1E1637"/><path opacity=".1" d="M254.227 166.399c.458 1.519 1.865 2.534 2.792 3.829a6.802 6.802 0 011.117 5.158c-.559 2.897-2.982 5.582-2.184 8.417a7.806 7.806 0 001.642 2.696c2.279 2.791 4.926 5.722 8.483 6.336.555.12 1.132.097 1.676-.067a3.442 3.442 0 001.446-1.178 8.492 8.492 0 001.636-6.771c-.31-1.072-.56-2.16-.748-3.26-.201-2.383 1.173-4.571 2.306-6.698 1.134-2.126 2.089-4.666 1.061-6.826-.726-1.535-2.289-2.479-3.814-3.232a38.065 38.065 0 00-10.611-3.377c-1.675-.279-2.468-.519-3.669.854-.96 1.139-1.58 2.668-1.133 4.119z" fill="#000"/><path d="M254.227 165.841c.458 1.518 1.865 2.534 2.792 3.829a6.794 6.794 0 011.117 5.158c-.559 2.897-2.982 5.582-2.184 8.417a7.815 7.815 0 001.642 2.696c2.279 2.791 4.926 5.721 8.483 6.335.555.12 1.132.097 1.676-.067a3.432 3.432 0 001.446-1.177 8.492 8.492 0 001.636-6.771c-.31-1.072-.56-2.16-.748-3.26-.201-2.383 1.173-4.571 2.306-6.698 1.134-2.127 2.089-4.666 1.061-6.826-.726-1.535-2.289-2.479-3.814-3.232a38.032 38.032 0 00-10.611-3.377c-1.675-.279-2.468-.519-3.669.854-.96 1.138-1.58 2.668-1.133 4.119z" fill="#1E1637"/><path opacity=".1" d="M306.649 231.779a5.056 5.056 0 01-1.401-.558 11.577 11.577 0 01-2.346-1.932 30.4 30.4 0 01-3.457-3.907c-1.117-1.563-2.87-4.359-2.708-6.352.558-.084 1.675.603 2.178.893a7.866 7.866 0 011.971 2.015c.811 1 1.75 1.89 2.792 2.646.7.455 1.37.955 2.005 1.496l.062.061c.12 1.904.423 3.792.904 5.638zm-49.362-76.08c-1.34 1.831-3.607 3.148-5.841 2.741a2.479 2.479 0 01-1.782-1.117 1.9 1.9 0 01-.19-.558c-.139.391-.279.787-.396 1.189a2.94 2.94 0 00.028 2.171 2.48 2.48 0 001.781 1.117c2.234.407 4.501-.91 5.842-2.741 1.34-1.831 1.926-4.097 2.401-6.313.168-.798.324-1.602.469-2.406-.458 2.105-1.044 4.192-2.312 5.917zm-6.763-3.059a9.59 9.59 0 00.559-2.294c.139-1.675-.721-3.639-2.379-3.941-.648-.117-1.329.034-1.966-.128-1.821-.464-2.039-2.819-1.776-4.761-.179.742-.33 1.495-.469 2.232-.38 2.026-.313 4.812 1.675 5.32.637.162 1.318 0 1.966.128 1.497.274 2.346 1.898 2.39 3.444zm33.122-4.56c0 .24-.055.474-.089.714.287-1.154.503-2.325.648-3.505.558-5.387-1.581-10.667-3.999-15.512a2.612 2.612 0 00-.932-1.194c-.592-.335-1.324-.162-2.005-.19-2.284-.095-3.815-2.4-5.942-3.249-2.994-1.189-6.467.904-8.009 3.729a15.362 15.362 0 00-1.58 5.342c.244-.886.587-1.742 1.022-2.551 1.541-2.825 5.026-4.918 8.008-3.729 2.128.848 3.658 3.154 5.942 3.249.682 0 1.413-.145 2.005.189.422.298.747.714.933 1.195 2.418 4.845 4.579 10.125 3.998 15.512zm26.633 48.807c-2.167-.257-4.172-1.273-6.305-1.725-2.273-.48-4.641-.307-6.913-.764-2.273-.458-4.625-1.781-5.244-4.019-1.676-.19-3.748 1.512-4.781.184a2.524 2.524 0 01-.396-1.211c-.291-1.965-.577-3.93-.86-5.895a2.792 2.792 0 01-2.96-1.044 6.572 6.572 0 01-1.184-3.081 21.9 21.9 0 01-.117-6.536 21.916 21.916 0 00-.442 9.327 6.582 6.582 0 001.184 3.081 2.79 2.79 0 002.96 1.044c.283 1.965.57 3.93.86 5.895.027.43.163.847.397 1.211 1.033 1.328 3.105-.374 4.78-.184.62 2.232 2.971 3.566 5.244 4.019 2.273.452 4.641.284 6.914.764 2.133.452 4.138 1.468 6.305 1.725 5.065.592 10.052-3.907 10.186-8.959-1.458 3.796-5.523 6.648-9.628 6.168zm-26.264-34.395c0-2.445-1.117-4.761-1.307-7.195a13.013 13.013 0 01.134-3.048 18.91 18.91 0 00-.692 5.839c.212 2.434 1.318 4.75 1.306 7.195 0 .184 0 .363-.033.558.356-1.082.555-2.21.592-3.349zm11.085 271.89l-14.519-1.814s.776-2.842 1.412-6.699l-.206 3.35a1.533 1.533 0 001.418 1.629l9.382.743a1.558 1.558 0 001.133-.361 1.535 1.535 0 00.543-1.057v-2.64l.273-1.675c.04.078.073.168.112.257-.771 1.619.452 8.267.452 8.267z" fill="#000"/><path d="M282.049 425.518s-5.171 10.482-2.072 13.329c2.234 2.093 10.002 1.496 13.995 1.022a2.579 2.579 0 002.273-2.741c-.218-3.182-.72-8.613-1.675-10.684l-.274 1.675v2.64a1.538 1.538 0 01-1.675 1.412l-9.382-.737a1.54 1.54 0 01-1.041-.526 1.54 1.54 0 01-.378-1.103l.229-4.287z" fill="#626696"/><path d="M283.038 141.583c-.257 2.366.927 4.616 1.602 6.899a16.7 16.7 0 01-1.061 12.101c-.731 1.462-1.675 2.83-2.194 4.387-1.38 4.226 1.334 9.327 5.612 10.55 1.179.34 2.452.419 3.524 1.021 2.189 1.223 2.792 4.103 2.737 6.609-.056 2.506-.386 5.175.776 7.396.977 1.87 2.893 3.087 4.87 3.829a16.517 16.517 0 0010.996.173 8.72 8.72 0 003.278-1.847c1.535-1.474 2.167-3.662 2.379-5.783a19.395 19.395 0 00-2.368-11.314c-1.597-2.853-3.909-5.247-5.685-7.977a26.775 26.775 0 01-4.339-13.173c-.134-2.389.055-4.811-.425-7.156a12.884 12.884 0 00-5.584-8.166c-1.391-.893-2.949-1.501-4.306-2.439-1.357-.938-2.022-2.495-3.552-2.233-2.781.408-5.97 4.533-6.26 7.123z" fill="#985C7E"/><path opacity=".1" d="M284.713 157.468a16.73 16.73 0 00.486-10.806c-.676-2.283-1.86-4.533-1.603-6.899 0-.078.034-.168.045-.251a6.421 6.421 0 00-.603 1.925c-.257 2.367.927 4.616 1.602 6.899a16.69 16.69 0 01.073 9.132zm29.023 33.424a8.722 8.722 0 01-3.278 1.848 16.518 16.518 0 01-10.996-.173c-1.977-.743-3.909-1.96-4.87-3.829-1.161-2.233-.804-4.884-.776-7.396.028-2.512-.558-5.387-2.736-6.615-1.073-.597-2.346-.681-3.524-1.016-4.027-1.149-6.663-5.732-5.814-9.79-.128.296-.251.603-.357.91-1.38 4.231 1.334 9.333 5.612 10.555 1.179.335 2.452.419 3.524 1.016 2.189 1.228 2.792 4.108 2.737 6.614-.056 2.506-.386 5.175.776 7.396.977 1.87 2.893 3.087 4.87 3.829a16.517 16.517 0 0010.996.173 8.72 8.72 0 003.278-1.847 7.786 7.786 0 002.055-3.88 6.82 6.82 0 01-1.497 2.205z" fill="#000"/><path d="M343.469 435.431l-4.915 1.814-12.213-3.801 1.977-4.644 1.72-4.041 11.241.87 1.006 4.499 1.184 5.303zm19.16-.491l-6.282 3.137-7.193-1.675-1.603-5.353-1.022-3.349s13.196-5.933 11.029-3.421c-.865 1.004-.217 2.919.86 4.85a40.11 40.11 0 004.211 5.811z" fill="#FFD2C6"/><path opacity=".1" d="M342.285 430.123l-13.962-1.038s0-.106-.033-.291l1.72-4.041 11.241.876 1.034 4.494z" fill="#000"/><path d="M362.361 311.442l-1.407.799-18.429 10.365 1.396 57.493s.285 15.93-.799 24.839a23.33 23.33 0 01-.877 4.465c-2.094 6.001.978 20.234.978 20.234l-14.883-1.116s-.614-4.89-.056-8.116c.558-3.226-3.211-23.706-3.211-23.706s-3.072-29.165-4.468-30.002c-1.396-.837-3.351-10.606-3.351-13.821s-5.165-25.118-5.188-25.531c-.022-.413-2.792-17.583-2.792-20.374 0-2.79-1.781-20.786-.815-25.252.38-1.747.916-4.08 1.424-6.262.793-3.389 1.524-6.436 1.524-6.436s48.726 3.209 52.775 9.762c.449.784.764 1.636.932 2.523 1.983 9.009-2.753 30.136-2.753 30.136z" fill="#CEDDF9"/><path opacity=".1" d="M360.647 299.927l.597 11.515-.302.799-18.429 10.365 1.397 57.493s.284 15.93-.799 24.839c-.933-3.45-2.792-8.183-2.692-8.652.14-.698-8.237-20.653-11.727-24.421-3.491-3.767-5.535-12.838-5.535-12.838s.508-18.699 2.463-21.211c1.955-2.511 5.367-33.758 5.367-33.758l29.66-4.131zm-2.245 129.185a2.628 2.628 0 00-1.625 1.083c-.648 1.2-5.82 1.072-9.243.854l-1.022-3.349s13.196-5.933 11.03-3.421c-.866.988-.218 2.902.86 4.833z" fill="#000"/><path d="M331.082 303.07s-2.374 32.235-4.328 34.746c-1.955 2.512-2.457 21.211-2.457 21.211s2.038 9.071 5.528 12.838c3.491 3.768 11.868 23.723 11.728 24.421-.14.697 4.049 10.884 3.072 12.14-.978 1.256-.123 8.373.15 8.792.274.418 2.083 2.74.827 4.789-1.257 2.048-1.117 8.227-1.117 8.227s11.309 1.217 12.286-.597c.977-1.814 5.864-1.418 5.864-1.418s-4.189-15.467-2.932-18.816c1.256-3.349-5.305-35.724-8.517-43.119-3.211-7.396 1.117-28.049 1.117-28.049l10.053-26.793.279-12.28-31.553 3.908z" fill="#CEDDF9"/><path d="M307.118 218.042l11.354 7.898 1.675 17.962v15.724l-1.485 7.346-10.069-.742.363-29.098-1.838-19.09z" fill="#4C4981"/><path opacity=".1" d="M307.118 218.042l11.354 7.898 1.675 17.962v15.724l-1.485 7.346-10.069-.742.363-29.098-1.838-19.09z" fill="#2C79B2"/><path d="M300.015 167.75s15.972 13.452 15.078 30.008c-.893 16.555 15.855-7.625 15.855-7.625l4.468-11.912s-19.837-9.65-17.698-22.137c2.139-12.486-17.703 11.666-17.703 11.666z" fill="#FFD2C6"/><path opacity=".1" d="M306.309 172.333c9.465 0 17.139-7.67 17.139-17.131s-7.674-17.13-17.139-17.13c-9.466 0-17.14 7.669-17.14 17.13 0 9.461 7.674 17.131 17.14 17.131z" fill="#000"/><path d="M306.309 171.216c9.465 0 17.139-7.669 17.139-17.13 0-9.461-7.674-17.131-17.139-17.131-9.466 0-17.14 7.67-17.14 17.131s7.674 17.13 17.14 17.13z" fill="#FFD2C6"/><path opacity=".1" d="M313.518 186.259s-5.026 5.353-6.651 5.353 1.391 21.379-1.508 25.498c-2.898 4.119 1.508 12.023 1.508 12.023l1.178 21.094s-3.116 23.36-2.686 24.375c.43 1.016 4.468 0 4.468 0l1.765-23.521s-.559-16.109.184-19.832c.743-3.723-.503-16.64.865-19.671 1.369-3.031 1.184-9.165 1.184-9.165l-.307-16.154z" fill="#000"/><path d="M312.96 185.701s-5.026 5.353-6.651 5.353c-1.626 0 1.39 21.378-1.508 25.498-2.899 4.119 1.508 12.023 1.508 12.023l1.178 21.094s-3.116 23.359-2.686 24.375c.43 1.016 4.467 0 4.467 0l1.765-23.521s-.558-16.11.184-19.833c.743-3.723-.502-16.639.866-19.67 1.368-3.031 1.184-9.165 1.184-9.165l-.307-16.154z" fill="#2C79B2"/><path opacity=".1" d="M365.109 281.306c-6.881.558-28.253 2.144-32.302-.189-4.54-2.618-19.138-4.181-22.93-5.66.793-3.389 1.525-6.436 1.525-6.436s48.725 3.209 52.774 9.762c.449.784.765 1.636.933 2.523z" fill="#000"/><path d="M367.248 280s-29.599 2.791-34.441 0c-4.841-2.791-21.132-4.382-23.539-5.956-2.406-1.574 1.184-15.846 2.597-18.894 1.413-3.048 3.072-5.107 2.854-6.391-.218-1.284.592-3.74 1.117-5.024.525-1.284 1.876-4.655 1.876-4.655s-1.474-1.301 0-5.063c1.475-3.762.201-.887-4.076-6.469-4.278-5.582-1.559-20.653-1.559-20.653l.888-21.183 3.965 4.27 4.708 5.069 7.26 7.747 9.868 2.791 9.678 10.979 9.868 20.575s.955 4.979 2.508 10.806c.72 2.708 1.575 5.582 2.518 8.25 2.977 8.356 3.91 23.801 3.91 23.801z" fill="#F86280"/><path opacity=".1" d="M360.82 247.933c-6.702 2.578-15.564 9.701-18.893 12.81-4.278 4.002-12.096 3.812-11.538 0 .559-3.812-10.8-31.052-10.8-31.052a117.408 117.408 0 00-5.428-17.554c-3.351-8.401 1.636-19.771 2.792-22.171l4.708 5.068 7.26 7.747 9.868 2.791 9.678 10.98 9.868 20.574s.943 4.979 2.485 10.807z" fill="#000"/><path d="M321.823 178.026l-4.111 10.365s-6.751 13.19-2.993 22.629a117.188 117.188 0 015.428 17.555s11.354 27.239 10.795 31.051c-.558 3.813 7.26 4.003 11.543 0 4.284-4.002 17.737-14.652 23.947-13.697 6.21.954 9.874-1.842 9.874-1.842s-11.298-14.613-10.739-20.804c.558-6.19-4.468-21.06-4.468-21.06s-2.234-16.26-3.826-20.223c-1.591-3.963-6.93-11.649-10.767-10.784-3.836.865-15.564-.067-15.564-.067l-9.119 6.877z" fill="#2C79B2"/><path opacity=".1" d="M346.858 359.652s-5.584 2.512-7.606 3.07c-2.022.559 6.908.279 7.606-3.07zm2.167 1.189s-14.453 5.163-13.894 6.419c.558 1.256 13.894-6.419 13.894-6.419zm-2.167 2.791s-5.864 7.117-4.255 7.536c1.608.418 4.255-7.536 4.255-7.536zM321.8 267.765s-8.17.485 1.396 2.997c9.567 2.512 15.285-.837 15.285-.837l-16.681-2.16z" fill="#000"/><path d="M317.712 209.681a1.313 1.313 0 100-2.626 1.313 1.313 0 000 2.626zm12.582-5.236a1.313 1.313 0 100-2.626 1.313 1.313 0 000 2.626zm-7.304 22.807a1.311 1.311 0 10.001-2.623 1.311 1.311 0 00-.001 2.623zm6.645 17.399a1.313 1.313 0 100-2.626 1.313 1.313 0 000 2.626zm-8.46-36.751h9.773l9.399-5.582.463 2.127-9.203 5.23h-9.93l-.502-1.775z" fill="#fff"/><path d="M317.712 189.296l10.069 1.764.062-17.566-6.02 4.532-4.111 11.27z" fill="#4C4981"/><path opacity=".1" d="M300.735 141.968a7.488 7.488 0 013.189-.039 9.317 9.317 0 013.289 1.875c2.458 1.887 5.088 4.052 5.652 7.095.564 3.042-1.184 6.541.173 9.41.966 2.06 3.423 3.478 3.457 5.75 0 .937-.408 1.819-.698 2.707-1.564 4.75.558 9.841 2.613 14.395a5.056 5.056 0 004.256 3.606l2.831.776c.5.183 1.036.244 1.564.179 1.296-.274 1.77-1.848 1.943-3.16.14-1.802.444-3.589.911-5.336.558-1.719 1.614-3.349 3.233-4.175 3.239-1.602 7.014.67 10.611.742.821.06 1.64-.135 2.345-.558 1.676-1.116 1.38-3.851 0-5.358-1.379-1.507-3.35-2.194-5.177-3.098a18.14 18.14 0 01-4.819-3.411 8.642 8.642 0 01-2.072-3.047c-.603-1.675-.424-3.517-.318-5.292.307-5.051-.051-10.243-2.022-14.903-1.971-4.661-5.724-8.736-10.56-10.221-2.726-.837-5.635-.826-8.427-1.401-2.19-.452-4.289-1.261-6.479-1.708-2.189-.446-4.557-.519-6.561.469-2.826 1.396-4.362 4.561-7.02 6.257-1.53.977-3.552 1.597-4.183 3.299-.754 2.026.977 4.348.251 6.38-.24.664-.72 1.217-1.011 1.859-.29.642-.351 1.49.168 1.965.259.212.572.348.905.39 2.373.447 4.021-.887 5.383-2.595 1.48-1.809 4.39-2.456 6.573-2.852z" fill="#000"/><path opacity=".1" d="M346.255 174.727a4.909 4.909 0 00-4.065 3.349c-.978 2.825-2.469 8.183-1.603 12.671a1173.173 1173.173 0 012.356 12.565v10.884s.285 10.466 1.961 13.117c1.675 2.652-6.562 25.548-6.562 25.548l-7.545 21.323s-11.448 26.095-.977 26.932c10.471.837 9.142-24.097 9.142-24.097l12.224-21.311 6.562-13.899a99.85 99.85 0 001.676-20.234c-.146-11.861-.704-21.852-.704-21.852s-2.932-18.476-6.283-21.825c-2.228-2.233-4.116-3.377-6.182-3.171z" fill="#000"/><path d="M345.138 174.169a4.907 4.907 0 00-4.065 3.349c-.978 2.825-2.469 8.183-1.603 12.671a1170.363 1170.363 0 012.356 12.564v10.885s.285 10.466 1.961 13.117c1.675 2.652-6.562 25.548-6.562 25.548l-7.545 21.323s-11.448 26.095-.977 26.932c10.471.837 9.142-24.097 9.142-24.097l12.224-21.311 6.562-13.899a99.85 99.85 0 001.676-20.234c-.146-11.861-.704-21.853-.704-21.853s-2.932-18.475-6.283-21.824c-2.228-2.233-4.116-3.377-6.182-3.171z" fill="#FFD2C6"/><path d="M301.294 141.409a7.52 7.52 0 013.189-.039 9.328 9.328 0 013.289 1.876c2.457 1.886 5.087 4.052 5.651 7.094.564 3.042-1.183 6.542.174 9.411.966 2.06 3.423 3.478 3.456 5.75 0 .937-.407 1.819-.698 2.707-1.563 4.75.559 9.84 2.614 14.395a5.061 5.061 0 004.255 3.606l2.832.776a3.338 3.338 0 001.563.178c1.296-.273 1.771-1.847 1.944-3.159.139-1.803.444-3.589.91-5.336.559-1.719 1.614-3.349 3.234-4.175 3.239-1.602 7.014.67 10.61.742.821.06 1.64-.135 2.346-.558 1.675-1.116 1.379-3.851 0-5.359-1.38-1.507-3.351-2.193-5.177-3.097a18.184 18.184 0 01-4.82-3.411 8.644 8.644 0 01-2.071-3.048c-.604-1.674-.425-3.516-.319-5.291.307-5.052-.05-10.243-2.021-14.904-1.972-4.66-5.725-8.735-10.561-10.22-2.725-.837-5.635-.826-8.427-1.401-2.189-.452-4.289-1.261-6.478-1.708-2.189-.446-4.557-.519-6.562.469-2.826 1.395-4.361 4.56-7.02 6.257-1.53.977-3.552 1.597-4.183 3.299-.754 2.026.978 4.348.252 6.38-.24.664-.721 1.217-1.011 1.859-.29.642-.352 1.49.167 1.965.259.212.573.347.905.39 2.374.447 4.021-.887 5.384-2.595 1.48-1.809 4.389-2.456 6.573-2.853z" fill="#985C7E"/><path opacity=".1" d="M345.496 173.728c-3.614-.072-7.389-2.35-10.611-.742a6.24 6.24 0 00-2.748 2.902 5.359 5.359 0 011.614-1.25c3.239-1.608 7.014.67 10.611.742a3.967 3.967 0 002.346-.558 2.582 2.582 0 001.061-1.641 4.05 4.05 0 01-2.273.547zm-16.715 11.923a3.354 3.354 0 01-1.564-.173l-2.837-.782a6.804 6.804 0 01-2.725-1.211 6.702 6.702 0 01-1.53-2.394c-2.066-4.55-4.172-9.646-2.614-14.396a8.435 8.435 0 00.704-2.702c-.034-2.277-2.491-3.695-3.462-5.754-1.352-2.869.407-6.285-.168-9.406-.575-3.12-3.2-5.208-5.657-7.1a9.49 9.49 0 00-3.284-1.875 7.692 7.692 0 00-3.194.039c-2.184.396-5.088 1.044-6.534 2.858-1.357 1.708-3.01 3.042-5.378 2.595a1.819 1.819 0 01-.91-.385c-.52-.474-.458-1.328-.168-1.97.29-.642.625-2.233-.106-.184-.235.664-.715 1.216-1.011 1.858-.296.642-.352 1.496.168 1.971.262.209.577.343.91.385 2.368.446 4.021-.888 5.378-2.596 1.446-1.814 4.35-2.461 6.534-2.858a7.709 7.709 0 013.194-.039 9.498 9.498 0 013.284 1.876c2.457 1.892 5.093 4.052 5.657 7.1.564 3.048-1.184 6.536.168 9.405.971 2.06 3.429 3.478 3.462 5.755a8.449 8.449 0 01-.704 2.702c-1.558 4.75.559 9.846 2.614 14.395a6.706 6.706 0 001.53 2.395 6.81 6.81 0 002.725 1.211l2.837.781a3.342 3.342 0 001.564.173c.894-.189 1.391-.999 1.675-1.909-.17.112-.359.191-.558.235z" fill="#000"/><path d="M336.343 433.444s-7.394-4.544-8.104-5.989c-.709-1.446-11.119 8.462-11.119 8.462s-5.445 4.744-8.164 5.788c-2.72 1.044-4.518 5.236-.793 5.582 3.725.346 18.172.558 18.172.558l12.426-1.602 7.751-1.368-1.469-11.431s-8.047 1.58-8.7 0z" fill="#CC8294"/><path d="M354.576 435.007s-6.551-6.14-9.237-4.689c-2.686 1.451-8.997 7.759-8.997 7.759s-5.958 4.956-7.561 6.073c-1.603 1.116-3.49 4.884 0 5.509s35.322-4.047 35.322-4.047-.396-11.604-1.468-11.777c-1.073-.173-5.725 2.428-8.059 1.172z" fill="#CC8294"/><path opacity=".1" d="M395.656 213.124l.559 31.08-14.152 18.258-3.311 4.65s-10.097 20.652-23.037 14.328c-2.233-1.077-3.194-2.489-3.311-4.086-.02-.239-.02-.48 0-.72.659-7.764 19.412-19.173 19.412-19.173s13.587-23.628 14.52-24.041c.932-.413 5.21-12.983 5.21-12.983l1.865-9.015a24.756 24.756 0 013.278-.687l-1.033 2.389z" fill="#000"/><path d="M392.864 210.283l-1.86 9.015s-4.283 12.57-5.216 12.983c-.932.413-14.52 24.041-14.52 24.041s-29.04 17.678-16.111 24.002c12.928 6.324 23.042-14.329 23.042-14.329l3.311-4.649 22.523-29.082s10.795-10.94 6.143-18.38c-4.652-7.441-17.312-3.601-17.312-3.601z" fill="#FEBFBA"/><path opacity=".1" d="M399.381 188.408l5.026 3.723s4.278 2.585 3.161 7.257c-1.117 4.672 1.676 6.14 1.676 6.14a15.437 15.437 0 001.675 5.314c1.491 2.874 2.792 6.14 0 7.574-2.792 1.435-20.473 1.44-20.473 1.44s1.301-1.183-2.792-6.173c-4.094-4.99-8.751-10.784-9.126-14.306-.374-3.523-5.394-13.012-4.836-15.63.559-2.617-.179-12.179-.045-14.641.135-2.461 2.648-9.265 4.881-8.663 2.234.603 10.243-3.968 15.453 6.14 5.21 10.109 5.4 21.825 5.4 21.825z" fill="#000"/><path d="M399.94 187.85l5.026 3.723s4.278 2.584 3.161 7.256c-1.117 4.672 1.675 6.14 1.675 6.14a15.424 15.424 0 001.675 5.314c1.491 2.875 2.793 6.14 0 7.575-2.792 1.434-20.473 1.44-20.473 1.44s1.301-1.183-2.792-6.174c-4.094-4.99-8.751-10.784-9.125-14.306-.374-3.522-5.395-13.011-4.836-15.629.558-2.618-.179-12.179-.045-14.641.134-2.461 2.647-9.266 4.881-8.663 2.234.603 10.242-3.968 15.452 6.14 5.211 10.109 5.401 21.825 5.401 21.825z" fill="#F16726"/><path d="M240.26 130.073a26.747 26.747 0 00-3.876 7.948c-3.295 10.606-1.29 22.473-1.29 22.473l-16.474-7.536s-13.403-11.722-5.864-17.164a15.896 15.896 0 005.685-6.966 11.32 11.32 0 00.877-5.314s29.319-4.884 20.942 6.559z" fill="#D38884"/><path opacity=".1" d="M240.26 130.073a26.747 26.747 0 00-3.876 7.948h-.452a21.222 21.222 0 01-17.491-9.199 11.317 11.317 0 00.877-5.313s29.319-4.879 20.942 6.564z" fill="#000"/><path d="M257.153 116.258a21.204 21.204 0 01-5.209 13.947 21.223 21.223 0 01-27.631 3.829 21.206 21.206 0 018.704-38.759 21.234 21.234 0 0116.842 5.006 21.206 21.206 0 017.294 15.977z" fill="#D38884"/><path opacity=".1" d="M257.153 116.258a21.156 21.156 0 01-1.284 7.29h-.034c-1.485-.709-2.647-1.937-3.764-3.143l-5.16-5.543c-1.039-1.116-2.234-2.322-3.792-2.338-.765 0-1.575.284-2.262-.051-.687-.335-.971-1.228-1.295-1.959a6.446 6.446 0 00-5.842-3.6c-1.24 0-2.323.201-2.965 1.261-.838 1.396-1.447 2.791-2.664 3.908a6.293 6.293 0 01-5.026 1.83 1.74 1.74 0 00-1.357.118c-.2.193-.333.446-.38.72-.363 1.423-.257 2.925-.508 4.37-.251 1.446-1.016 2.97-2.413 3.433a3.378 3.378 0 01-2.892-.558 21.191 21.191 0 012.67-17.358 21.224 21.224 0 0123.807-8.717 21.223 21.223 0 0113.257 11.525 21.206 21.206 0 011.915 8.778l-.011.034z" fill="#000"/><path d="M239.562 109.934c.324.736.558 1.607 1.295 1.964.737.358 1.497.045 2.262.051 1.53 0 2.753 1.222 3.792 2.338l5.16 5.543c1.117 1.2 2.279 2.434 3.77 3.137 1.491.703 3.401.765 4.663-.29 1.262-1.055 1.53-2.791 1.223-4.376-.307-1.585-1.117-2.97-1.81-4.399-.692-1.429-1.318-2.975-1.184-4.554.118-1.457.849-2.791 1.475-4.092 1.446-3.053 2.379-6.659 1.072-9.774-.921-2.182-2.792-3.795-4.741-5.157-1.307-.916-2.793-1.792-4.379-1.758-1.887.039-3.535 1.328-5.405 1.596a8.137 8.137 0 01-3.569-.447c-2.602-.826-5.026-2.232-7.617-3.02a18.869 18.869 0 00-7.752-.742c-1.117.123-2.234.374-3.01 1.144-.776.77-1.055 1.976-1.48 3.026a8.824 8.824 0 01-3.177 3.94c-1.558 1.061-3.418 1.591-5.026 2.54-1.609.95-3.122 2.54-3.066 4.427.099.761.237 1.518.413 2.266a7.255 7.255 0 01-1.34 4.839c-1.022 1.574-2.474 3.249-2.017 5.069.324 1.289 1.503 2.132 2.38 3.131 1.055 1.206 1.703 2.724 2.725 3.963 1.022 1.239 2.675 2.233 4.199 1.675 1.397-.458 2.162-1.982 2.413-3.428.251-1.445.145-2.947.508-4.37.051-.275.183-.528.38-.726.363-.296.893-.178 1.357-.111a6.315 6.315 0 002.718-.355 6.312 6.312 0 002.308-1.476c1.217-1.117 1.826-2.534 2.67-3.908.636-1.055 1.72-1.261 2.959-1.255a6.444 6.444 0 015.831 3.589z" fill="#1E1637"/><path opacity=".1" d="M212.448 101.65c-.072-.508-.217-1.004-.312-1.507-.073.3-.107.607-.101.916.084.722.215 1.438.391 2.143a5.762 5.762 0 00.022-1.552zm47.76 1.932c-.626 1.317-1.357 2.634-1.474 4.091a5.2 5.2 0 00.05 1.289 13.892 13.892 0 011.424-3.706c1.083-2.288 1.876-4.89 1.675-7.357a16.662 16.662 0 01-1.675 5.683zm.296 17.42c-1.262 1.055-3.178.994-4.669.291-1.491-.704-2.647-1.937-3.764-3.137l-5.16-5.543c-1.039-1.116-2.234-2.322-3.792-2.339-.765 0-1.575.285-2.262-.05-.687-.335-.971-1.228-1.295-1.965a6.447 6.447 0 00-5.842-3.595c-1.24 0-2.323.201-2.965 1.256-.838 1.401-1.447 2.791-2.664 3.908a6.293 6.293 0 01-5.026 1.83c-.464-.067-.994-.184-1.357.112-.199.197-.332.45-.38.726-.363 1.423-.257 2.925-.508 4.37-.251 1.446-1.017 2.97-2.413 3.428-1.524.507-3.177-.464-4.199-1.675-1.022-1.211-1.676-2.757-2.731-3.963-.849-.971-1.983-1.803-2.34-3.025a2.98 2.98 0 00-.034 1.568c.319 1.289 1.503 2.132 2.374 3.131 1.061 1.206 1.709 2.724 2.731 3.964 1.022 1.239 2.675 2.232 4.199 1.674 1.396-.458 2.162-1.981 2.413-3.427.251-1.446.145-2.947.508-4.371.048-.275.181-.529.38-.725.363-.296.893-.179 1.357-.112a6.282 6.282 0 005.026-1.831c1.217-1.116 1.826-2.534 2.664-3.907.642-1.055 1.725-1.262 2.965-1.256a6.447 6.447 0 015.842 3.595c.324.736.558 1.607 1.295 1.964.737.358 1.497.045 2.262.051 1.53 0 2.753 1.222 3.792 2.339l5.16 5.542c1.117 1.2 2.279 2.434 3.764 3.137 1.486.704 3.407.765 4.669-.29 1.117-.96 1.48-2.607 1.262-4.097a3.905 3.905 0 01-1.262 2.422z" fill="#000"/><path d="M200.285 430.513l-.653 13.86s20.199-.279 23.639 1.49c3.441 1.77 24.388 1.675 24.388 1.675s9.678-3.628 4.284-7.351c-5.395-3.723-15.079-4.092-15.079-4.092s-8.008-10.979-9.493-11.442c-1.486-.464-4.189-3.07-5.864.463-1.676 3.533-6.311 7.072-6.311 7.072l-14.911-1.675z" fill="#4C4981"/><path d="M245.984 295.434c-2.418 10.231-13.219 54.886-13.219 54.886s-3.719 3.539-3.719 7.63c0 4.091-2.424 8.373-2.424 8.373s1.307 40.189-1.859 50.61c-3.05 10.047-.229 9.545 0 9.489l-9.092 7.435-16.754.184s.743-12.838 1.301-13.954c.559-1.117 4.468-7.067 2.05-10.974s.743-43.17 3.351-48.193c2.608-5.024 0-17.862 0-17.862a47.035 47.035 0 00-2.793 9.679c-.748 4.833-6.891 12.28-6.891 13.206 0 12.721-15.637 42.796-15.637 42.796s-5.584 18.978-4.093 22.511c1.491 3.534-1.491 7.257-3.535 6.33-2.044-.927-18.429 0-18.429 0s-.375-11.164 0-12.096c.374-.932 4.277-4.839 4.277-4.839-1.301-10.232 7.819-50.795 13.219-56.561 5.4-5.766 6.489-17.672 6.489-17.672s5.026.748 3.267-1.674c-1.759-2.423 3.993-14.881 3.993-14.881s-1.865-17.494 0-22.143a22.479 22.479 0 001.486-9.673c0-1.307.19-10.796 1.212-13.028 1.022-2.233-.095-8.183 0-11.348.072-2.439.033-7.759 0-10.047v-1.117l1.396-8.747 6.327-16.371 23.087 5.398 17.312 3.349s9.862 10.231 12.655 17.672c.338.932.585 1.895.737 2.874 1.279 7.798-1.553 19.732-3.714 28.758z" fill="#C4E0FF"/><path d="M165.566 433.025s-11.353-1.027-12.66 4.092c-1.307 5.118-2.882 14.607-2.882 14.607s-1.77 5.303 9.678 5.766c11.449.464 11.264-1.49 11.264-1.49s-.19-9.126.369-10.751c.558-1.624.558-7.859.558-7.859s-1.932-6.318-6.327-4.365z" fill="#4C4981"/><path opacity=".1" d="M249.698 266.676c-.151 4.416-.363 8.105-.363 8.105s-8.02.14-7.852-21.35c0 0-1.782 16.326-3.736 16.745-1.955.419-2.793-2.512-9.494-2.093-6.702.419-15.218-2.93-16.195-6.28-.978-3.349-12.845-12.559-14.66-12.14-1.815.419-2.234 7.256-2.234 7.256s-5.584 4.03-6.969 6.699v-1.117l1.396-8.747 6.327-16.371 23.087 5.398 17.312 3.349s9.862 10.231 12.655 17.672c.334.932.577 1.895.726 2.874z" fill="#000"/><path d="M249.335 273.665s-8.02.139-7.852-21.351c0 0-1.782 16.327-3.736 16.746-1.955.418-2.793-2.512-9.494-2.093-6.702.418-15.218-2.931-16.195-6.28-.978-3.349-12.845-12.559-14.66-12.14-1.815.418-2.234 7.256-2.234 7.256s-5.584 4.047-6.98 6.698c-1.397 2.652-.978-4.884 0-9.768.977-4.884.558-14.792 0-19.118-.559-4.326-2.793-15.35-.9-23.025 1.894-7.675-.737-24.56-.737-24.56s.179-11.024 0-17.861c-.178-6.838-7.857-9.489-3.948-16.746 3.909-7.256 14.101-15.908 14.101-15.908s7.12.837 10.192-1.814a6.424 6.424 0 011.005-.703c3.435-1.971 9.494-2.054 9.494-2.054l10.32 10.544s5.077 10.773 5.445 13.396c.013.113.013.227 0 .34l1.771-10.365s7.427 2.791 7.427 6.843v6.559s1.675 7.117 3.351 10.466c1.675 3.349-.838 36.142-.838 36.142s.977 10.187.14 14.373c-.838 4.187 1.273 12.978 1.273 12.978s1.938 15.908 3.055 18.978c1.117 3.07 0 22.467 0 22.467z" fill="#75BF44"/><path opacity=".1" d="M227.276 294.781s-2.608 14.976-7.26 21.674c-4.652 6.698-11.912 21.68-11.912 21.68" fill="#000"/><path d="M233.491 111.887h-29.76c-.617 0-1.117.5-1.117 1.117v10.789c0 .617.5 1.117 1.117 1.117h29.76c.617 0 1.117-.5 1.117-1.117v-10.789c0-.617-.5-1.117-1.117-1.117z" fill="#3A3768"/><path d="M228.365 119.752a1.351 1.351 0 100-2.702 1.351 1.351 0 000 2.702z" fill="#E6E8EC"/><path d="M202.145 162.447s-10.985 3.349-14.799.838c-3.814-2.512-11.03-13.397-11.03-13.397s2.083-15.322 3.91-15.88c1.826-.558.893 14.513.893 14.513s2.608 5.816 3.585 5.816c.978 0 7.679-.837 8.517-2.512.838-1.674 2.234-12.001 2.234-12.001l1.117-5.023 5.584 3.488 4.328 10.723-4.339 13.435z" fill="#75BF44"/><path d="M187.569 154.923c-4.707.346-8.594-3.673-8.377-8.373.246-5.258.699-12.481 1.307-13.53.978-1.675 10.192-13.955 10.192-13.955s29.18-15.489 26.108-3.349c-3.071 12.141-15.078 13.676-15.078 13.676l-5.445-2.791-.14 17.583s-1.223 10.209-8.567 10.739z" fill="#D38884"/><path opacity=".1" d="M190.138 330.599s-1.675 3.718 4.468 4.834c6.143 1.116-4.468-4.834-4.468-4.834zm-7.26 15.255s.559 7.257 3.725 8.747c3.167 1.49-3.725-8.747-3.725-8.747zm25.226 17.488s-1.212 3.723 1.764 5.772c2.977 2.048-1.764-5.772-1.764-5.772zm0-4.65s-.469 4.282 4.747 5.582l-4.747-5.582zm-2.145 21.211s3.435 4.466 4.513 4.092c1.077-.374-4.513-4.092-4.513-4.092zm27.18 56.376s-11.353-.558-8.561 2.233c2.793 2.791 8.561-1.116 8.561-1.116v-1.117zm-77.81 8.825s14.331-2.523 13.403 0c-.927 2.523-13.403 0-13.403 0zm33.692-275.635s9.271 1.301 13.012-1.3c3.742-2.601 4.859 1.674 2.234 3.717s-15.246-2.417-15.246-2.417zm1.302 11.164c2.982.374 2.323 3.907 7.678.742 5.356-3.165-7.678-.742-7.678-.742zm1.072 13.954s12.61 2.049 15.078-4.091l-15.078 4.091zm41.744-39.145v.447l-25.242-22.328c3.435-1.97 9.494-2.054 9.494-2.054l10.32 10.544s5.06 10.768 5.428 13.391z" fill="#000"/><path d="M233.139 154.884v.446l-25.242-22.327c3.435-1.97 9.494-2.054 9.494-2.054l10.32 10.544s5.06 10.767 5.428 13.391z" fill="#75BF44"/><path opacity=".1" d="M187.53 162.587s14.894-1.278 15.078-13.48c0-.011 2.536 13.664-15.078 13.48z" fill="#000"/><path d="M233.419 156.519a1.189 1.189 0 100-2.377 1.189 1.189 0 000 2.377z" fill="#fff"/></g><defs><linearGradient id="paint0_linear" x1="149.924" y1="270.578" x2="417.358" y2="270.578" gradientUnits="userSpaceOnUse"><stop stop-color="gray" stop-opacity=".25"/><stop offset=".54" stop-color="gray" stop-opacity=".12"/><stop offset="1" stop-color="gray" stop-opacity=".1"/></linearGradient><clipPath id="clip0"><path fill="#fff" d="M0 0h589v469H0z"/></clipPath></defs></svg>