<svg width="24" height="25" fill="none" xmlns="http://www.w3.org/2000/svg"><g clip-path="url(#clip0)"><path d="M8.25 19.733v3m-4.5-21h9a1.5 1.5 0 011.5 1.5v19.313a.188.188 0 01-.188.187H2.25v-19.5a1.5 1.5 0 011.5-1.5v0zM15 9.233h5.25a1.5 1.5 0 011.5 1.5v12h-7.5V9.983a.75.75 0 01.75-.75z" stroke="#50DBDB" stroke-width="2.125" stroke-linecap="round" stroke-linejoin="round"/><path d="M4.598 20.477a.75.75 0 11-.195-1.488.75.75 0 01.195 1.488zm0-3.75a.75.75 0 11-.195-1.488.75.75 0 01.195 1.488zm0-3.75a.75.75 0 11-.195-1.488.75.75 0 01.195 1.488zm0-3.75a.75.75 0 11-.195-1.487.75.75 0 01.195 1.487zm0-3.75a.75.75 0 11-.195-1.487.75.75 0 01.195 1.487zm3.75 11.25a.75.75 0 11-.195-1.488.75.75 0 01.195 1.488zm0-3.75a.75.75 0 11-.195-1.488.75.75 0 01.195 1.488zm0-3.75a.75.75 0 11-.195-1.487.75.75 0 01.195 1.487zm0-3.75a.75.75 0 11-.195-1.487.75.75 0 01.195 1.487zm3.75 15a.75.75 0 11-.195-1.488.75.75 0 01.194 1.488zm0-3.75a.75.75 0 11-.195-1.488.75.75 0 01.194 1.488zm0-3.75a.75.75 0 11-.195-1.488.75.75 0 01.194 1.488zm.433-3.963a.75.75 0 00-.002-1.06.75.75 0 00-1.06-.002.75.75 0 00.002 1.06.75.75 0 001.06.002zm-.433-3.537a.75.75 0 11-.195-1.487.75.75 0 01.194 1.487zm6.652 13.506a.75.75 0 100 1.501.75.75 0 000-1.5zm0-3.75a.75.75 0 100 1.501.75.75 0 000-1.5zm0-3.75a.75.75 0 100 1.501.75.75 0 000-1.5zm-3 7.5a.75.75 0 100 1.501.75.75 0 000-1.5zm0-3.75a.75.75 0 100 1.501.75.75 0 000-1.5zm0-3.75a.75.75 0 100 1.501.75.75 0 000-1.5z" fill="#50DBDB"/></g><defs><clipPath id="clip0"><path fill="#fff" transform="translate(0 .233)" d="M0 0h24v24H0z"/></clipPath></defs></svg>