<svg width="24" height="24" fill="none" xmlns="http://www.w3.org/2000/svg"><path d="M19.5 20.25h-15A2.25 2.25 0 012.25 18V4.5A2.25 2.25 0 014.5 2.25h15a2.25 2.25 0 012.25 2.25V18a2.25 2.25 0 01-2.25 2.25z" stroke="#6849D4" stroke-width="3.313" stroke-linejoin="round"/><path d="M18.648 20.25H5.352c-1.71 0-3.102-1.413-3.102-3.15v-2.85H3c0 .75.75 1.5 1.5 1.5h15c.75 0 1.5-.75 1.5-1.5h.75v2.85c0 1.737-1.392 3.15-3.102 3.15zM13.875 12a1.125 1.125 0 110 2.25 1.125 1.125 0 010-2.25zm3.75 0a1.125 1.125 0 110 2.25 1.125 1.125 0 010-2.25zm-3.75-3.75a1.125 1.125 0 110 2.25 1.125 1.125 0 010-2.25zm3.75 0a1.125 1.125 0 110 2.25 1.125 1.125 0 010-2.25zm-11.25 0a1.125 1.125 0 110 2.25 1.125 1.125 0 010-2.25zm3.75 0a1.125 1.125 0 110 2.25 1.125 1.125 0 010-2.25zM6.375 4.5a1.125 1.125 0 110 2.25 1.125 1.125 0 010-2.25zm3.75 0a1.125 1.125 0 110 2.25 1.125 1.125 0 010-2.25zm3.75 0a1.125 1.125 0 110 2.25 1.125 1.125 0 010-2.25z" fill="#6849D4"/><path d="M6 21.75v-1.5m12 1.5v-1.5" stroke="#6849D4" stroke-width="3.313" stroke-linecap="round" stroke-linejoin="round"/></svg>