<svg width="25" height="24" fill="none" xmlns="http://www.w3.org/2000/svg"><path d="M16.25 11.619V3.563c0-1.14-.893-2.063-2.013-2.063H5.516C4.393 1.5 3.5 2.423 3.5 3.563v12.374A2.075 2.075 0 005.563 18h4.411a1.151 1.151 0 00.82-.345l5.117-5.203a1.19 1.19 0 00.339-.833v0z" stroke="#6849D4" stroke-width="2.084" stroke-linejoin="round"/><path d="M9.875 18v-5.063a1.328 1.328 0 011.313-1.312h5.062" stroke="#6849D4" stroke-width="2.084" stroke-linecap="round" stroke-linejoin="round"/><path d="M8.75 18v2.438a2.075 2.075 0 002.063 2.062h4.406a1.164 1.164 0 00.825-.345l5.117-5.203c.217-.22.34-.518.339-.827V8.062C21.5 6.923 20.607 6 19.487 6h-2.862" stroke="#6849D4" stroke-width="2.084" stroke-linejoin="round"/><path d="M15.125 22.5v-5.063a1.328 1.328 0 011.313-1.312H21.5" stroke="#6849D4" stroke-width="2.084" stroke-linecap="round" stroke-linejoin="round"/></svg>