<svg width="25" height="24" fill="none" xmlns="http://www.w3.org/2000/svg"><path d="M19.344 7.875c-.138 1.906-1.552 3.375-3.094 3.375-1.542 0-2.959-1.468-3.094-3.375-.14-1.983 1.236-3.375 3.094-3.375 1.858 0 3.234 1.428 3.094 3.375z" stroke="#FF6C01" stroke-width="1.969" stroke-linecap="round" stroke-linejoin="round"/><path d="M16.25 14.25c-3.055 0-5.992 1.517-6.728 4.472-.098.391.147.778.549.778H22.43c.401 0 .645-.387.549-.778-.736-3.002-3.674-4.472-6.729-4.472z" stroke="#FF6C01" stroke-width="1.969" stroke-miterlimit="10"/><path d="M9.875 8.716c-.11 1.522-1.252 2.722-2.484 2.722s-2.377-1.2-2.485-2.722C4.794 7.132 5.906 6 7.391 6c1.484 0 2.596 1.161 2.484 2.716z" stroke="#FF6C01" stroke-width="1.969" stroke-linecap="round" stroke-linejoin="round"/><path d="M10.156 14.344c-.846-.388-1.778-.537-2.765-.537-2.438 0-4.786 1.212-5.375 3.572-.077.312.119.621.44.621h5.263" stroke="#FF6C01" stroke-width="1.969" stroke-miterlimit="10" stroke-linecap="round"/></svg>