<svg width="24" height="25" fill="none" xmlns="http://www.w3.org/2000/svg"><g clip-path="url(#clip0)" stroke="#13FAE2" stroke-width="3.063" stroke-linecap="round" stroke-linejoin="round"><path d="M4.875 15.233h-1.5a.375.375 0 00-.375.375v6.75c0 .207.168.375.375.375h1.5a.375.375 0 00.375-.375v-6.75a.375.375 0 00-.375-.375zm10.5-4.5h-1.5a.375.375 0 00-.375.375v11.25c0 .207.168.375.375.375h1.5a.375.375 0 00.375-.375v-11.25a.375.375 0 00-.375-.375zm5.25-5.25h-1.5a.375.375 0 00-.375.375v16.5c0 .207.168.375.375.375h1.5a.375.375 0 00.375-.375v-16.5a.375.375 0 00-.375-.375zm-10.5-3.75h-1.5a.375.375 0 00-.375.375v20.25c0 .207.168.375.375.375h1.5a.375.375 0 00.375-.375V2.108a.375.375 0 00-.375-.375z"/></g><defs><clipPath id="clip0"><path fill="#fff" transform="translate(0 .233)" d="M0 0h24v24H0z"/></clipPath></defs></svg>