<svg width="103" height="103" viewBox="0 0 103 103" fill="none" xmlns="http://www.w3.org/2000/svg">
<path d="M8.58334 12.875H34.3333C38.8862 12.875 43.2526 14.6836 46.472 17.903C49.6914 21.1224 51.5 25.4888 51.5 30.0417V90.125C51.5 86.7103 50.1435 83.4355 47.729 81.021C45.3145 78.6065 42.0397 77.25 38.625 77.25H8.58334V12.875Z" stroke="white" stroke-width="2" stroke-linecap="round" stroke-linejoin="round"/>
<path d="M94.4167 12.875H68.6667C64.1138 12.875 59.7474 14.6836 56.528 17.903C53.3086 21.1224 51.5 25.4888 51.5 30.0417V90.125C51.5 86.7103 52.8565 83.4355 55.271 81.021C57.6855 78.6065 60.9603 77.25 64.375 77.25H94.4167V12.875Z" stroke="white" stroke-width="2" stroke-linecap="round" stroke-linejoin="round"/>
</svg>
