<svg width="24" height="25" viewBox="0 0 24 25" fill="none" xmlns="http://www.w3.org/2000/svg">
<g clip-path="url(#clip0)">
<path d="M8.25 19.7334V22.7334" stroke="#50DBDB" stroke-width="2.125" stroke-linecap="round" stroke-linejoin="round"/>
<path d="M3.75 1.7334H12.75C13.1478 1.7334 13.5294 1.89143 13.8107 2.17274C14.092 2.45404 14.25 2.83557 14.25 3.2334V22.5459C14.25 22.5956 14.2302 22.6433 14.1951 22.6785C14.1599 22.7136 14.1122 22.7334 14.0625 22.7334H2.25V3.2334C2.25 2.83557 2.40804 2.45404 2.68934 2.17274C2.97064 1.89143 3.35218 1.7334 3.75 1.7334V1.7334Z" stroke="#50DBDB" stroke-width="2.125" stroke-linecap="round" stroke-linejoin="round"/>
<path d="M15 9.2334H20.25C20.6478 9.2334 21.0294 9.39143 21.3107 9.67274C21.592 9.95404 21.75 10.3356 21.75 10.7334V22.7334H14.25V9.9834C14.25 9.78449 14.329 9.59372 14.4697 9.45307C14.6103 9.31242 14.8011 9.2334 15 9.2334Z" stroke="#50DBDB" stroke-width="2.125" stroke-linecap="round" stroke-linejoin="round"/>
<path d="M4.59751 20.4773C4.44218 20.4976 4.28438 20.4688 4.14627 20.3949C4.00817 20.3209 3.89667 20.2056 3.82745 20.0651C3.75822 19.9245 3.73474 19.7659 3.76029 19.6113C3.78584 19.4568 3.85914 19.3141 3.96991 19.2033C4.08069 19.0925 4.22336 19.0192 4.37792 18.9937C4.53247 18.9681 4.69115 18.9916 4.83167 19.0608C4.9722 19.1301 5.08753 19.2416 5.16146 19.3797C5.23539 19.5178 5.26423 19.6756 5.24391 19.8309C5.22247 19.9948 5.14747 20.1471 5.03057 20.264C4.91368 20.3809 4.76143 20.4559 4.59751 20.4773Z" fill="#50DBDB"/>
<path d="M4.59751 16.7273C4.44218 16.7476 4.28438 16.7188 4.14627 16.6449C4.00817 16.5709 3.89667 16.4556 3.82745 16.3151C3.75822 16.1745 3.73474 16.0159 3.76029 15.8613C3.78584 15.7068 3.85914 15.5641 3.96991 15.4533C4.08069 15.3425 4.22336 15.2692 4.37792 15.2437C4.53247 15.2181 4.69115 15.2416 4.83167 15.3108C4.9722 15.3801 5.08753 15.4916 5.16146 15.6297C5.23539 15.7678 5.26423 15.9256 5.24391 16.0809C5.22247 16.2448 5.14747 16.3971 5.03057 16.514C4.91368 16.6309 4.76143 16.7059 4.59751 16.7273Z" fill="#50DBDB"/>
<path d="M4.59751 12.9773C4.44218 12.9976 4.28438 12.9688 4.14627 12.8949C4.00817 12.8209 3.89667 12.7056 3.82745 12.5651C3.75822 12.4245 3.73474 12.2659 3.76029 12.1113C3.78584 11.9568 3.85914 11.8141 3.96991 11.7033C4.08069 11.5925 4.22336 11.5192 4.37792 11.4937C4.53247 11.4681 4.69115 11.4916 4.83167 11.5608C4.9722 11.6301 5.08753 11.7416 5.16146 11.8797C5.23539 12.0178 5.26423 12.1756 5.24391 12.3309C5.22247 12.4948 5.14747 12.6471 5.03057 12.764C4.91368 12.8809 4.76143 12.9559 4.59751 12.9773Z" fill="#50DBDB"/>
<path d="M4.59751 9.22731C4.44218 9.24762 4.28438 9.21879 4.14627 9.14486C4.00817 9.07092 3.89667 8.9556 3.82745 8.81507C3.75822 8.67455 3.73474 8.51587 3.76029 8.36131C3.78584 8.20676 3.85914 8.06408 3.96991 7.95331C4.08069 7.84254 4.22336 7.76924 4.37792 7.74369C4.53247 7.71814 4.69115 7.74162 4.83167 7.81085C4.9722 7.88007 5.08753 7.99156 5.16146 8.12967C5.23539 8.26778 5.26423 8.42557 5.24391 8.5809C5.22247 8.74483 5.14747 8.89707 5.03057 9.01397C4.91368 9.13087 4.76143 9.20587 4.59751 9.22731Z" fill="#50DBDB"/>
<path d="M4.59751 5.47731C4.44218 5.49763 4.28438 5.46879 4.14627 5.39486C4.00817 5.32092 3.89667 5.2056 3.82745 5.06507C3.75822 4.92455 3.73474 4.76587 3.76029 4.61131C3.78584 4.45676 3.85914 4.31408 3.96991 4.20331C4.08069 4.09254 4.22336 4.01924 4.37792 3.99369C4.53247 3.96814 4.69115 3.99162 4.83167 4.06085C4.9722 4.13007 5.08753 4.24156 5.16146 4.37967C5.23539 4.51778 5.26423 4.67557 5.24391 4.8309C5.22247 4.99483 5.14747 5.14707 5.03057 5.26397C4.91368 5.38087 4.76143 5.45587 4.59751 5.47731Z" fill="#50DBDB"/>
<path d="M8.34751 16.7273C8.19218 16.7476 8.03438 16.7188 7.89627 16.6449C7.75817 16.5709 7.64667 16.4556 7.57745 16.3151C7.50822 16.1745 7.48474 16.0159 7.51029 15.8613C7.53584 15.7068 7.60914 15.5641 7.71991 15.4533C7.83069 15.3425 7.97336 15.2692 8.12792 15.2437C8.28247 15.2181 8.44115 15.2416 8.58167 15.3108C8.7222 15.3801 8.83753 15.4916 8.91146 15.6297C8.98539 15.7678 9.01423 15.9256 8.99391 16.0809C8.97247 16.2448 8.89747 16.3971 8.78057 16.514C8.66368 16.6309 8.51143 16.7059 8.34751 16.7273Z" fill="#50DBDB"/>
<path d="M8.34751 12.9773C8.19218 12.9976 8.03438 12.9688 7.89627 12.8949C7.75817 12.8209 7.64667 12.7056 7.57745 12.5651C7.50822 12.4245 7.48474 12.2659 7.51029 12.1113C7.53584 11.9568 7.60914 11.8141 7.71991 11.7033C7.83069 11.5925 7.97336 11.5192 8.12792 11.4937C8.28247 11.4681 8.44115 11.4916 8.58167 11.5608C8.7222 11.6301 8.83753 11.7416 8.91146 11.8797C8.98539 12.0178 9.01423 12.1756 8.99391 12.3309C8.97247 12.4948 8.89747 12.6471 8.78057 12.764C8.66368 12.8809 8.51143 12.9559 8.34751 12.9773Z" fill="#50DBDB"/>
<path d="M8.34751 9.22731C8.19218 9.24762 8.03438 9.21879 7.89627 9.14486C7.75817 9.07092 7.64667 8.9556 7.57745 8.81507C7.50822 8.67455 7.48474 8.51587 7.51029 8.36131C7.53584 8.20676 7.60914 8.06408 7.71991 7.95331C7.83069 7.84254 7.97336 7.76924 8.12792 7.74369C8.28247 7.71814 8.44115 7.74162 8.58167 7.81085C8.7222 7.88007 8.83753 7.99156 8.91146 8.12967C8.98539 8.26778 9.01423 8.42557 8.99391 8.5809C8.97247 8.74483 8.89747 8.89707 8.78057 9.01397C8.66368 9.13087 8.51143 9.20587 8.34751 9.22731Z" fill="#50DBDB"/>
<path d="M8.34751 5.47731C8.19218 5.49763 8.03438 5.46879 7.89627 5.39486C7.75817 5.32092 7.64667 5.2056 7.57745 5.06507C7.50822 4.92455 7.48474 4.76587 7.51029 4.61131C7.53584 4.45676 7.60914 4.31408 7.71991 4.20331C7.83069 4.09254 7.97336 4.01924 8.12792 3.99369C8.28247 3.96814 8.44115 3.99162 8.58167 4.06085C8.7222 4.13007 8.83753 4.24156 8.91146 4.37967C8.98539 4.51778 9.01423 4.67557 8.99391 4.8309C8.97247 4.99483 8.89747 5.14707 8.78057 5.26397C8.66368 5.38087 8.51143 5.45587 8.34751 5.47731Z" fill="#50DBDB"/>
<path d="M12.0975 20.4773C11.9422 20.4976 11.7844 20.4688 11.6463 20.3949C11.5082 20.3209 11.3967 20.2056 11.3274 20.0651C11.2582 19.9245 11.2347 19.7659 11.2603 19.6113C11.2858 19.4568 11.3591 19.3141 11.4699 19.2033C11.5807 19.0925 11.7234 19.0192 11.8779 18.9937C12.0325 18.9681 12.1911 18.9916 12.3317 19.0608C12.4722 19.1301 12.5875 19.2416 12.6615 19.3797C12.7354 19.5178 12.7642 19.6756 12.7439 19.8309C12.7225 19.9948 12.6475 20.1471 12.5306 20.264C12.4137 20.3809 12.2614 20.4559 12.0975 20.4773Z" fill="#50DBDB"/>
<path d="M12.0975 16.7273C11.9422 16.7476 11.7844 16.7188 11.6463 16.6449C11.5082 16.5709 11.3967 16.4556 11.3274 16.3151C11.2582 16.1745 11.2347 16.0159 11.2603 15.8613C11.2858 15.7068 11.3591 15.5641 11.4699 15.4533C11.5807 15.3425 11.7234 15.2692 11.8779 15.2437C12.0325 15.2181 12.1911 15.2416 12.3317 15.3108C12.4722 15.3801 12.5875 15.4916 12.6615 15.6297C12.7354 15.7678 12.7642 15.9256 12.7439 16.0809C12.7225 16.2448 12.6475 16.3971 12.5306 16.514C12.4137 16.6309 12.2614 16.7059 12.0975 16.7273Z" fill="#50DBDB"/>
<path d="M12.0975 12.9773C11.9422 12.9976 11.7844 12.9688 11.6463 12.8949C11.5082 12.8209 11.3967 12.7056 11.3274 12.5651C11.2582 12.4245 11.2347 12.2659 11.2603 12.1113C11.2858 11.9568 11.3591 11.8141 11.4699 11.7033C11.5807 11.5925 11.7234 11.5192 11.8779 11.4937C12.0325 11.4681 12.1911 11.4916 12.3317 11.5608C12.4722 11.6301 12.5875 11.7416 12.6615 11.8797C12.7354 12.0178 12.7642 12.1756 12.7439 12.3309C12.7225 12.4948 12.6475 12.6471 12.5306 12.764C12.4137 12.8809 12.2614 12.9559 12.0975 12.9773Z" fill="#50DBDB"/>
<path d="M12.5313 9.01432C12.8233 8.72234 12.8221 8.24777 12.5287 7.95433C12.2352 7.66088 11.7607 7.6597 11.4687 7.95167C11.1767 8.24365 11.1779 8.71823 11.4713 9.01167C11.7648 9.30511 12.2393 9.3063 12.5313 9.01432Z" fill="#50DBDB"/>
<path d="M12.0975 5.47731C11.9422 5.49763 11.7844 5.46879 11.6463 5.39486C11.5082 5.32092 11.3967 5.2056 11.3274 5.06507C11.2582 4.92455 11.2347 4.76587 11.2603 4.61131C11.2858 4.45676 11.3591 4.31408 11.4699 4.20331C11.5807 4.09254 11.7234 4.01924 11.8779 3.99369C12.0325 3.96814 12.1911 3.99162 12.3317 4.06085C12.4722 4.13007 12.5875 4.24156 12.6615 4.37967C12.7354 4.51778 12.7642 4.67557 12.7439 4.8309C12.7225 4.99483 12.6475 5.14707 12.5306 5.26397C12.4137 5.38087 12.2614 5.45587 12.0975 5.47731Z" fill="#50DBDB"/>
<path d="M18.75 18.9834C18.6017 18.9834 18.4567 19.0274 18.3333 19.1098C18.21 19.1922 18.1139 19.3093 18.0571 19.4464C18.0003 19.5834 17.9855 19.7342 18.0144 19.8797C18.0434 20.0252 18.1148 20.1588 18.2197 20.2637C18.3246 20.3686 18.4582 20.44 18.6037 20.469C18.7492 20.4979 18.9 20.4831 19.037 20.4263C19.1741 20.3695 19.2912 20.2734 19.3736 20.1501C19.456 20.0267 19.5 19.8817 19.5 19.7334C19.5 19.5345 19.421 19.3437 19.2803 19.2031C19.1397 19.0624 18.9489 18.9834 18.75 18.9834Z" fill="#50DBDB"/>
<path d="M18.75 15.2334C18.6017 15.2334 18.4567 15.2774 18.3333 15.3598C18.21 15.4422 18.1139 15.5593 18.0571 15.6964C18.0003 15.8334 17.9855 15.9842 18.0144 16.1297C18.0434 16.2752 18.1148 16.4088 18.2197 16.5137C18.3246 16.6186 18.4582 16.69 18.6037 16.719C18.7492 16.7479 18.9 16.7331 19.037 16.6763C19.1741 16.6195 19.2912 16.5234 19.3736 16.4001C19.456 16.2767 19.5 16.1317 19.5 15.9834C19.5 15.7845 19.421 15.5937 19.2803 15.4531C19.1397 15.3124 18.9489 15.2334 18.75 15.2334Z" fill="#50DBDB"/>
<path d="M18.75 11.4834C18.6017 11.4834 18.4567 11.5274 18.3333 11.6098C18.21 11.6922 18.1139 11.8093 18.0571 11.9464C18.0003 12.0834 17.9855 12.2342 18.0144 12.3797C18.0434 12.5252 18.1148 12.6588 18.2197 12.7637C18.3246 12.8686 18.4582 12.94 18.6037 12.969C18.7492 12.9979 18.9 12.9831 19.037 12.9263C19.1741 12.8695 19.2912 12.7734 19.3736 12.6501C19.456 12.5267 19.5 12.3817 19.5 12.2334C19.5 12.0345 19.421 11.8437 19.2803 11.7031C19.1397 11.5624 18.9489 11.4834 18.75 11.4834Z" fill="#50DBDB"/>
<path d="M15.75 18.9834C15.6017 18.9834 15.4567 19.0274 15.3333 19.1098C15.21 19.1922 15.1139 19.3093 15.0571 19.4464C15.0003 19.5834 14.9855 19.7342 15.0144 19.8797C15.0434 20.0252 15.1148 20.1588 15.2197 20.2637C15.3246 20.3686 15.4582 20.44 15.6037 20.469C15.7492 20.4979 15.9 20.4831 16.037 20.4263C16.1741 20.3695 16.2912 20.2734 16.3736 20.1501C16.456 20.0267 16.5 19.8817 16.5 19.7334C16.5 19.5345 16.421 19.3437 16.2803 19.2031C16.1397 19.0624 15.9489 18.9834 15.75 18.9834Z" fill="#50DBDB"/>
<path d="M15.75 15.2334C15.6017 15.2334 15.4567 15.2774 15.3333 15.3598C15.21 15.4422 15.1139 15.5593 15.0571 15.6964C15.0003 15.8334 14.9855 15.9842 15.0144 16.1297C15.0434 16.2752 15.1148 16.4088 15.2197 16.5137C15.3246 16.6186 15.4582 16.69 15.6037 16.719C15.7492 16.7479 15.9 16.7331 16.037 16.6763C16.1741 16.6195 16.2912 16.5234 16.3736 16.4001C16.456 16.2767 16.5 16.1317 16.5 15.9834C16.5 15.7845 16.421 15.5937 16.2803 15.4531C16.1397 15.3124 15.9489 15.2334 15.75 15.2334Z" fill="#50DBDB"/>
<path d="M15.75 11.4834C15.6017 11.4834 15.4567 11.5274 15.3333 11.6098C15.21 11.6922 15.1139 11.8093 15.0571 11.9464C15.0003 12.0834 14.9855 12.2342 15.0144 12.3797C15.0434 12.5252 15.1148 12.6588 15.2197 12.7637C15.3246 12.8686 15.4582 12.94 15.6037 12.969C15.7492 12.9979 15.9 12.9831 16.037 12.9263C16.1741 12.8695 16.2912 12.7734 16.3736 12.6501C16.456 12.5267 16.5 12.3817 16.5 12.2334C16.5 12.0345 16.421 11.8437 16.2803 11.7031C16.1397 11.5624 15.9489 11.4834 15.75 11.4834Z" fill="#50DBDB"/>
</g>
<defs>
<clipPath id="clip0">
<rect width="24" height="24" fill="white" transform="translate(0 0.233398)"/>
</clipPath>
</defs>
</svg>
