<svg width="24" height="24" viewBox="0 0 24 24" fill="none" xmlns="http://www.w3.org/2000/svg">
<path d="M19.5 20.25H4.5C3.25736 20.25 2.25 19.2426 2.25 18V4.5C2.25 3.25736 3.25736 2.25 4.5 2.25H19.5C20.7426 2.25 21.75 3.25736 21.75 4.5V18C21.75 19.2426 20.7426 20.25 19.5 20.25Z" stroke="#6849D4" stroke-width="3.3125" stroke-linejoin="round"/>
<path d="M18.6478 20.25H5.35219C3.64172 20.25 2.25 18.8367 2.25 17.1V14.25H3C3 15 3.75 15.75 4.5 15.75H19.5C20.25 15.75 21 15 21 14.25H21.75V17.1C21.75 18.8367 20.3583 20.25 18.6478 20.25Z" fill="#6849D4"/>
<path d="M13.875 12C14.4963 12 15 12.5037 15 13.125C15 13.7463 14.4963 14.25 13.875 14.25C13.2537 14.25 12.75 13.7463 12.75 13.125C12.75 12.5037 13.2537 12 13.875 12Z" fill="#6849D4"/>
<path d="M17.625 12C18.2463 12 18.75 12.5037 18.75 13.125C18.75 13.7463 18.2463 14.25 17.625 14.25C17.0037 14.25 16.5 13.7463 16.5 13.125C16.5 12.5037 17.0037 12 17.625 12Z" fill="#6849D4"/>
<path d="M13.875 8.25C14.4963 8.25 15 8.75368 15 9.375C15 9.99632 14.4963 10.5 13.875 10.5C13.2537 10.5 12.75 9.99632 12.75 9.375C12.75 8.75368 13.2537 8.25 13.875 8.25Z" fill="#6849D4"/>
<path d="M17.625 8.25C18.2463 8.25 18.75 8.75368 18.75 9.375C18.75 9.99632 18.2463 10.5 17.625 10.5C17.0037 10.5 16.5 9.99632 16.5 9.375C16.5 8.75368 17.0037 8.25 17.625 8.25Z" fill="#6849D4"/>
<path d="M6.375 8.25C6.99632 8.25 7.5 8.75368 7.5 9.375C7.5 9.99632 6.99632 10.5 6.375 10.5C5.75368 10.5 5.25 9.99632 5.25 9.375C5.25 8.75368 5.75368 8.25 6.375 8.25Z" fill="#6849D4"/>
<path d="M10.125 8.25C10.7463 8.25 11.25 8.75368 11.25 9.375C11.25 9.99632 10.7463 10.5 10.125 10.5C9.50368 10.5 9 9.99632 9 9.375C9 8.75368 9.50368 8.25 10.125 8.25Z" fill="#6849D4"/>
<path d="M6.375 4.5C6.99632 4.5 7.5 5.00368 7.5 5.625C7.5 6.24632 6.99632 6.75 6.375 6.75C5.75368 6.75 5.25 6.24632 5.25 5.625C5.25 5.00368 5.75368 4.5 6.375 4.5Z" fill="#6849D4"/>
<path d="M10.125 4.5C10.7463 4.5 11.25 5.00368 11.25 5.625C11.25 6.24632 10.7463 6.75 10.125 6.75C9.50368 6.75 9 6.24632 9 5.625C9 5.00368 9.50368 4.5 10.125 4.5Z" fill="#6849D4"/>
<path d="M13.875 4.5C14.4963 4.5 15 5.00368 15 5.625C15 6.24632 14.4963 6.75 13.875 6.75C13.2537 6.75 12.75 6.24632 12.75 5.625C12.75 5.00368 13.2537 4.5 13.875 4.5Z" fill="#6849D4"/>
<path d="M6 21.75V20.25" stroke="#6849D4" stroke-width="3.3125" stroke-linecap="round" stroke-linejoin="round"/>
<path d="M18 21.75V20.25" stroke="#6849D4" stroke-width="3.3125" stroke-linecap="round" stroke-linejoin="round"/>
</svg>
