<svg width="25" height="24" viewBox="0 0 25 24" fill="none" xmlns="http://www.w3.org/2000/svg">
<path d="M16.25 11.6189V3.5625C16.25 2.42344 15.357 1.5 14.2367 1.5H5.51562C4.39297 1.5 3.5 2.42344 3.5 3.5625V15.9375C3.5032 16.4835 3.72152 17.0063 4.10763 17.3924C4.49373 17.7785 5.01648 17.9968 5.5625 18H9.97437C10.1271 17.9998 10.2782 17.9691 10.419 17.9099C10.5597 17.8507 10.6873 17.764 10.7942 17.655L15.9106 12.4519C16.1283 12.2293 16.2501 11.9303 16.25 11.6189V11.6189Z" stroke="#6849D4" stroke-width="2.08398" stroke-linejoin="round"/>
<path d="M9.875 18V12.9375C9.87914 12.5907 10.0187 12.2592 10.264 12.014C10.5092 11.7687 10.8407 11.6291 11.1875 11.625H16.25" stroke="#6849D4" stroke-width="2.08398" stroke-linecap="round" stroke-linejoin="round"/>
<path d="M8.75 18V20.4375C8.7532 20.9835 8.97152 21.5063 9.35763 21.8924C9.74373 22.2785 10.2665 22.4968 10.8125 22.5H15.2188C15.3723 22.4998 15.5243 22.4692 15.666 22.41C15.8076 22.3508 15.9362 22.2641 16.0442 22.155L21.1606 16.9519C21.3782 16.7317 21.5001 16.4345 21.5 16.125V8.0625C21.5 6.92344 20.607 6 19.4867 6H16.625" stroke="#6849D4" stroke-width="2.08398" stroke-linejoin="round"/>
<path d="M15.125 22.5V17.4375C15.1291 17.0907 15.2687 16.7592 15.514 16.514C15.7592 16.2687 16.0907 16.1291 16.4375 16.125H21.5" stroke="#6849D4" stroke-width="2.08398" stroke-linecap="round" stroke-linejoin="round"/>
</svg>
