<svg width="25" height="24" viewBox="0 0 25 24" fill="none" xmlns="http://www.w3.org/2000/svg">
<path d="M19.3437 7.875C19.2064 9.78141 17.7922 11.25 16.25 11.25C14.7078 11.25 13.2912 9.78188 13.1562 7.875C13.0156 5.89172 14.3923 4.5 16.25 4.5C18.1076 4.5 19.4844 5.92781 19.3437 7.875Z" stroke="#FF6C01" stroke-width="1.96875" stroke-linecap="round" stroke-linejoin="round"/>
<path d="M16.25 14.25C13.1952 14.25 10.2575 15.7673 9.52156 18.7223C9.42406 19.1133 9.66922 19.5 10.0709 19.5H22.4295C22.8312 19.5 23.075 19.1133 22.9789 18.7223C22.243 15.72 19.3053 14.25 16.25 14.25Z" stroke="#FF6C01" stroke-width="1.96875" stroke-miterlimit="10"/>
<path d="M9.87501 8.71594C9.76532 10.2384 8.62251 11.4375 7.39063 11.4375C6.15876 11.4375 5.01407 10.2389 4.90626 8.71594C4.79422 7.13203 5.90657 6 7.39063 6C8.87469 6 9.98704 7.16109 9.87501 8.71594Z" stroke="#FF6C01" stroke-width="1.96875" stroke-linecap="round" stroke-linejoin="round"/>
<path d="M10.1563 14.3437C9.31016 13.9561 8.37828 13.807 7.39063 13.807C4.95313 13.807 2.60469 15.0187 2.01641 17.3789C1.93906 17.6911 2.135 18 2.45563 18H7.71875" stroke="#FF6C01" stroke-width="1.96875" stroke-miterlimit="10" stroke-linecap="round"/>
</svg>
