<svg width="24" height="25" viewBox="0 0 24 25" fill="none" xmlns="http://www.w3.org/2000/svg">
<g clip-path="url(#clip0)">
<path d="M4.875 15.2334H3.375C3.16789 15.2334 3 15.4013 3 15.6084V22.3584C3 22.5655 3.16789 22.7334 3.375 22.7334H4.875C5.08211 22.7334 5.25 22.5655 5.25 22.3584V15.6084C5.25 15.4013 5.08211 15.2334 4.875 15.2334Z" stroke="#13FAE2" stroke-width="3.0625" stroke-linecap="round" stroke-linejoin="round"/>
<path d="M15.375 10.7334H13.875C13.6679 10.7334 13.5 10.9013 13.5 11.1084V22.3584C13.5 22.5655 13.6679 22.7334 13.875 22.7334H15.375C15.5821 22.7334 15.75 22.5655 15.75 22.3584V11.1084C15.75 10.9013 15.5821 10.7334 15.375 10.7334Z" stroke="#13FAE2" stroke-width="3.0625" stroke-linecap="round" stroke-linejoin="round"/>
<path d="M20.625 5.4834H19.125C18.9179 5.4834 18.75 5.65129 18.75 5.8584V22.3584C18.75 22.5655 18.9179 22.7334 19.125 22.7334H20.625C20.8321 22.7334 21 22.5655 21 22.3584V5.8584C21 5.65129 20.8321 5.4834 20.625 5.4834Z" stroke="#13FAE2" stroke-width="3.0625" stroke-linecap="round" stroke-linejoin="round"/>
<path d="M10.125 1.7334H8.625C8.41789 1.7334 8.25 1.90129 8.25 2.1084V22.3584C8.25 22.5655 8.41789 22.7334 8.625 22.7334H10.125C10.3321 22.7334 10.5 22.5655 10.5 22.3584V2.1084C10.5 1.90129 10.3321 1.7334 10.125 1.7334Z" stroke="#13FAE2" stroke-width="3.0625" stroke-linecap="round" stroke-linejoin="round"/>
</g>
<defs>
<clipPath id="clip0">
<rect width="24" height="24" fill="white" transform="translate(0 0.233398)"/>
</clipPath>
</defs>
</svg>
