<svg width="81" height="81" viewBox="0 0 81 81" fill="none" xmlns="http://www.w3.org/2000/svg">
<path d="M54 70.875V64.125C54 60.5446 52.5777 57.1108 50.0459 54.5791C47.5142 52.0473 44.0804 50.625 40.5 50.625H16.875C13.2946 50.625 9.8608 52.0473 7.32906 54.5791C4.79732 57.1108 3.375 60.5446 3.375 64.125V70.875" stroke="white" stroke-width="2" stroke-linecap="round" stroke-linejoin="round"/>
<path d="M28.6875 37.125C36.1433 37.125 42.1875 31.0808 42.1875 23.625C42.1875 16.1692 36.1433 10.125 28.6875 10.125C21.2317 10.125 15.1875 16.1692 15.1875 23.625C15.1875 31.0808 21.2317 37.125 28.6875 37.125Z" stroke="white" stroke-width="2" stroke-linecap="round" stroke-linejoin="round"/>
<path d="M67.5 27V47.25" stroke="white" stroke-width="2" stroke-linecap="round" stroke-linejoin="round"/>
<path d="M77.625 37.125H57.375" stroke="white" stroke-width="2" stroke-linecap="round" stroke-linejoin="round"/>
</svg>
